<svg width="21" height="20" viewBox="0 0 21 20" fill="none" xmlns="http://www.w3.org/2000/svg">
<g id="google">
<path id="vector" d="M19.2509 10.1943C19.2509 9.47489 19.1913 8.94989 19.0624 8.40546H10.6794V11.6526H15.6C15.5009 12.4596 14.9652 13.6749 13.7747 14.4915L13.758 14.6002L16.4085 16.6125L16.5921 16.6305C18.2786 15.104 19.2509 12.8582 19.2509 10.1943Z" fill="#4285F4"/>
<path id="vector_2" d="M10.6789 18.75C13.0896 18.75 15.1134 17.9722 16.5916 16.6306L13.7741 14.4916C13.0202 15.0069 12.0083 15.3666 10.6789 15.3666C8.31785 15.3666 6.31391 13.8402 5.59956 11.7305L5.49485 11.7392L2.7388 13.8295L2.70276 13.9277C4.17099 16.786 7.18686 18.75 10.6789 18.75Z" fill="#34A853"/>
<path id="vector_3" d="M5.60002 11.7305C5.41153 11.1861 5.30244 10.6027 5.30244 9.99998C5.30244 9.39716 5.41153 8.81385 5.5901 8.26941L5.58511 8.15346L2.79451 6.0296L2.70321 6.07216C2.09808 7.25829 1.75085 8.59026 1.75085 9.99998C1.75085 11.4097 2.09808 12.7416 2.70321 13.9277L5.60002 11.7305Z" fill="#FBBC05"/>
<path id="vector_4" d="M10.679 4.63331C12.3555 4.63331 13.4865 5.34303 14.1313 5.93612L16.6512 3.525C15.1036 2.11528 13.0897 1.25 10.679 1.25C7.18689 1.25 4.171 3.21387 2.70276 6.07218L5.58966 8.26943C6.31393 6.15972 8.31788 4.63331 10.679 4.63331Z" fill="#EB4335"/>
</g>
</svg>
