<svg width="32" height="32" viewBox="0 0 32 32" fill="none" xmlns="http://www.w3.org/2000/svg">
<path d="M29.1103 7.04767H26.5192V18.4358C26.5031 19.3208 26.1422 20.1646 25.5134 20.7876C24.8847 21.4106 24.0376 21.7636 23.1524 21.7715H13.1917L12.959 22.0043C13.096 22.4752 13.3784 22.8908 13.7657 23.1917C14.1529 23.4926 14.6254 23.6635 15.1156 23.6799H19.2581L25.3556 28.7689V23.6799H29.0947C30.2739 23.6799 31.4375 22.5938 31.4375 21.4302V9.11118C31.4375 7.93203 30.2739 7.04767 29.1103 7.04767Z" fill="#00A5FF"/>
<path d="M23.1369 3.12232H2.93617C1.75702 3.12232 0.670959 4.06874 0.670959 5.24789V18.4358C0.670959 19.6149 1.75702 20.6234 2.93617 20.6234H6.76841V25.79L12.7883 20.6234H23.1369C24.3471 20.6234 25.309 19.646 25.3556 18.4513V5.23238C25.3315 4.66435 25.0889 4.1276 24.6783 3.73435C24.2677 3.3411 23.721 3.12181 23.1524 3.12232H23.1369Z" fill="#00A5FF"/>
</svg>
