<svg width="32" height="32" viewBox="0 0 32 32" fill="none" xmlns="http://www.w3.org/2000/svg">
<path d="M11.8398 29.1999C13.0098 29.6699 14.2798 29.9499 15.6198 29.9999C17.4298 30.0599 19.1398 29.6899 20.6798 28.9799C18.8398 28.2599 17.1698 27.1999 15.7498 25.8799C14.8221 27.3612 13.4603 28.5205 11.8498 29.1999H11.8398Z" fill="#FF9100"/>
<path d="M15.7396 25.88C12.4896 22.88 10.5196 18.53 10.6896 13.76C10.6896 13.61 10.6996 13.45 10.7096 13.3C9.26713 12.932 7.7533 12.9492 6.31959 13.35C5.44959 14.87 4.92959 16.61 4.85959 18.48C4.68959 23.3 7.60959 27.51 11.8396 29.21C13.4546 28.538 14.8184 27.377 15.7396 25.89V25.88Z" fill="#FFC400"/>
<path d="M15.7404 25.88C16.5199 24.6318 16.9579 23.2007 17.0104 21.73C17.1504 17.71 14.4504 14.26 10.7104 13.29C10.7104 13.44 10.6904 13.6 10.6904 13.75C10.6067 16.0151 11.0148 18.2714 11.8866 20.3637C12.7584 22.456 14.0731 24.3345 15.7404 25.87V25.88Z" fill="#FF9100"/>
<path d="M16.59 2C14.46 3.7 12.78 5.95 11.76 8.54C11.1637 10.0587 10.8094 11.6615 10.71 13.29C12.5641 13.7693 14.1992 14.867 15.3447 16.4017C16.4903 17.9364 17.0777 19.8161 17.01 21.73C16.9636 23.2017 16.5252 24.6344 15.74 25.88C17.177 27.2099 18.8487 28.2611 20.67 28.98C24.37 27.27 26.99 23.6 27.14 19.25C27.24 16.43 26.16 13.92 24.63 11.8C23.01 9.56 16.59 2.01 16.59 2.01V2Z" fill="#DD2C00"/>
</svg>
