<svg width="32" height="32" viewBox="0 0 32 32" fill="none" xmlns="http://www.w3.org/2000/svg">
    <g id="Postmark" clip-path="url(#clip0_192_508)">
        <path id="Vector" fill-rule="evenodd" clip-rule="evenodd"
            d="M32 29.25V30.75C31.3097 30.75 30.75 31.3097 30.75 32H29.25C29.25 31.3097 28.6903 30.75 28 30.75C27.3097 30.75 26.75 31.3097 26.75 32H25.25C25.25 31.3097 24.6903 30.75 24 30.75C23.3097 30.75 22.75 31.3097 22.75 32H21.25C21.25 31.3097 20.6903 30.75 20 30.75C19.3097 30.75 18.75 31.3097 18.75 32H17.25C17.25 31.3097 16.6903 30.75 16 30.75C15.3097 30.75 14.75 31.3097 14.75 32H13.25C13.25 31.3097 12.6903 30.75 12 30.75C11.3097 30.75 10.75 31.3097 10.75 32H9.25001C9.25001 31.3097 8.69036 30.75 8 30.75C7.30964 30.75 6.75 31.3097 6.75 32H5.25001C5.25001 31.5534 5.01175 31.1408 4.625 30.9174C4.23825 30.6942 3.76175 30.6942 3.375 30.9174C2.98825 31.1408 2.74999 31.5534 2.74999 32H1.25001C1.25001 31.3097 0.690356 30.75 0 30.75V29.25C0.690356 29.25 1.25001 28.6903 1.25001 28C1.25001 27.3097 0.690356 26.75 0 26.75V25.25C0.690356 25.25 1.25001 24.6903 1.25001 24C1.25001 23.3097 0.690356 22.75 0 22.75V21.25C0.690356 21.25 1.25001 20.6903 1.25001 20C1.25001 19.3097 0.690356 18.75 0 18.75V17.25C0.690356 17.25 1.25001 16.6903 1.25001 16C1.25001 15.3097 0.690356 14.75 0 14.75V13.25C0.690356 13.25 1.25001 12.6903 1.25001 12C1.25001 11.3097 0.690356 10.75 0 10.75V9.25001C0.690356 9.25001 1.25001 8.69036 1.25001 8C1.25001 7.30964 0.690356 6.75 0 6.75V5.25001C0.690356 5.24999 1.25001 4.69036 1.25001 4C1.25001 3.30964 0.690356 2.75001 0 2.74999V1.25001C0.690356 1.25001 1.25001 0.690356 1.25001 0H2.74999C2.75001 0.690356 3.30964 1.25001 4 1.25001C4.69036 1.25001 5.24999 0.690356 5.25001 0H6.75C6.75 0.690356 7.30964 1.25001 8 1.25001C8.69036 1.25001 9.25001 0.690356 9.25001 0H10.75C10.75 0.690356 11.3097 1.25001 12 1.25001C12.6903 1.25001 13.25 0.690356 13.25 0H14.75C14.75 0.690356 15.3097 1.25001 16 1.25001C16.6903 1.25001 17.25 0.690356 17.25 0H18.75C18.75 0.690356 19.3097 1.25001 20 1.25001C20.6903 1.25001 21.25 0.690356 21.25 0H22.75C22.75 0.690356 23.3097 1.25001 24 1.25001C24.6903 1.25001 25.25 0.690356 25.25 0H26.75C26.75 0.690356 27.3097 1.25001 28 1.25001C28.6903 1.25001 29.25 0.690356 29.25 0H30.75C30.75 0.690356 31.3097 1.25001 32 1.25001V2.74999C31.3097 2.74999 30.75 3.30964 30.75 4C30.75 4.69036 31.3097 5.25001 32 5.25001V6.75C31.3097 6.75 30.75 7.30964 30.75 8C30.75 8.69036 31.3097 9.25001 32 9.25001V10.75C31.3097 10.75 30.75 11.3097 30.75 12C30.75 12.6903 31.3097 13.25 32 13.25V14.75C31.5534 14.75 31.1408 14.9883 30.9174 15.375C30.6942 15.7617 30.6942 16.2383 30.9174 16.625C31.1408 17.0117 31.5534 17.25 32 17.25V18.75C31.3097 18.75 30.75 19.3097 30.75 20C30.75 20.6903 31.3097 21.25 32 21.25V22.75C31.3097 22.75 30.75 23.3097 30.75 24C30.75 24.6903 31.3097 25.25 32 25.25V26.75C31.3097 26.75 30.75 27.3097 30.75 28C30.75 28.6903 31.3097 29.25 32 29.25Z"
            fill="#FFDE00" />
        <path id="Vector_2"
            d="M9.28345 22.8058H10.2811C10.7935 22.8058 11.117 22.4752 11.117 21.9518V10.2708C11.117 9.74733 10.7935 9.41674 10.2811 9.41674H9.28345V6.82709H16.51C20.3929 6.82709 23.4668 8.8382 23.4668 12.6676C23.4668 16.5245 20.3929 18.5357 16.51 18.5357H14.0292V21.9518C14.0292 22.4752 14.3528 22.8058 14.8921 22.8058H16.9144V25.423H9.28345V22.8058ZM16.2942 15.8357C18.8559 15.8357 20.3389 14.7338 20.3389 12.7227C20.3389 10.6565 18.8559 9.60959 16.2942 9.60959H14.0292V15.8634H16.2942V15.8357Z"
            fill="black" />
    </g>
    <defs>
        <clipPath id="clip0_192_508">
            <rect width="32" height="32" fill="white" />
        </clipPath>
    </defs>
</svg>
    