<svg fill="none" viewBox="0 0 78 78" width="40"
    xmlns="http://www.w3.org/2000/svg">
    <path
        d="M3 28.6C3 19.6392 3 15.1587 4.7439 11.7362C6.27787 8.72556 8.72556 6.27787 11.7362 4.7439C15.1587 3 19.6392 3 28.6 3H49.4C58.3608 3 62.8413 3 66.2638 4.7439C69.2744 6.27787 71.7221 8.72556 73.2561 11.7362C75 15.1587 75 19.6392 75 28.6V49.4C75 58.3608 75 62.8413 73.2561 66.2638C71.7221 69.2744 69.2744 71.7221 66.2638 73.2561C62.8413 75 58.3608 75 49.4 75H28.6C19.6392 75 15.1587 75 11.7362 73.2561C8.72556 71.7221 6.27787 69.2744 4.7439 66.2638C3 62.8413 3 58.3608 3 49.4V28.6Z"
        fill="url(#paint0_linear_1_13)"></path>
    <path clipRule="evenodd"
        d="M49.4 6H28.6C24.0701 6 20.8531 6.00233 18.3355 6.20802C15.853 6.41085 14.316 6.79637 13.0981 7.41692C10.652 8.66327 8.66327 10.652 7.41692 13.0981C6.79637 14.316 6.41085 15.853 6.20802 18.3355C6.00233 20.8531 6 24.0701 6 28.6V49.4C6 53.9299 6.00233 57.1469 6.20802 59.6645C6.41085 62.147 6.79637 63.684 7.41692 64.9019C8.66327 67.348 10.652 69.3367 13.0981 70.5831C14.316 71.2036 15.853 71.5891 18.3355 71.792C20.8531 71.9977 24.0701 72 28.6 72H49.4C53.9299 72 57.1469 71.9977 59.6645 71.792C62.147 71.5891 63.684 71.2036 64.9019 70.5831C67.348 69.3367 69.3367 67.348 70.5831 64.9019C71.2036 63.684 71.5891 62.147 71.792 59.6645C71.9977 57.1469 72 53.9299 72 49.4V28.6C72 24.0701 71.9977 20.8531 71.792 18.3355C71.5891 15.853 71.2036 14.316 70.5831 13.0981C69.3367 10.652 67.348 8.66327 64.9019 7.41692C63.684 6.79637 62.147 6.41085 59.6645 6.20802C57.1469 6.00233 53.9299 6 49.4 6ZM4.7439 11.7362C3 15.1587 3 19.6392 3 28.6V49.4C3 58.3608 3 62.8413 4.7439 66.2638C6.27787 69.2744 8.72556 71.7221 11.7362 73.2561C15.1587 75 19.6392 75 28.6 75H49.4C58.3608 75 62.8413 75 66.2638 73.2561C69.2744 71.7221 71.7221 69.2744 73.2561 66.2638C75 62.8413 75 58.3608 75 49.4V28.6C75 19.6392 75 15.1587 73.2561 11.7362C71.7221 8.72556 69.2744 6.27787 66.2638 4.7439C62.8413 3 58.3608 3 49.4 3H28.6C19.6392 3 15.1587 3 11.7362 4.7439C8.72556 6.27787 6.27787 8.72556 4.7439 11.7362Z"
        fill="black" fillRule="evenodd"></path>
    <path
        d="M3 28.6C3 19.6392 3 15.1587 4.7439 11.7362C6.27787 8.72556 8.72556 6.27787 11.7362 4.7439C15.1587 3 19.6392 3 28.6 3H49.4C58.3608 3 62.8413 3 66.2638 4.7439C69.2744 6.27787 71.7221 8.72556 73.2561 11.7362C75 15.1587 75 19.6392 75 28.6V49.4C75 58.3608 75 62.8413 73.2561 66.2638C71.7221 69.2744 69.2744 71.7221 66.2638 73.2561C62.8413 75 58.3608 75 49.4 75H28.6C19.6392 75 15.1587 75 11.7362 73.2561C8.72556 71.7221 6.27787 69.2744 4.7439 66.2638C3 62.8413 3 58.3608 3 49.4V28.6Z"
        fill="url(#paint1_linear_1_13)"></path>
    <path clipRule="evenodd"
        d="M49.532 -4.96464e-07C53.9006 -2.33846e-05 57.3626 -4.14997e-05 60.1531 0.22795C63.0066 0.461095 65.4211 0.947527 67.6258 2.07088C71.2009 3.89247 74.1075 6.7991 75.9291 10.3742C77.0525 12.5789 77.5389 14.9934 77.772 17.8469C78 20.6374 78 24.0994 78 28.4679V49.5321C78 53.9006 78 57.3626 77.772 60.1531C77.5389 63.0066 77.0525 65.4211 75.9291 67.6258C74.1075 71.2009 71.2009 74.1075 67.6258 75.9291C65.4211 77.0525 63.0066 77.5389 60.1531 77.772C57.3626 78 53.9006 78 49.5321 78H28.4679C24.0994 78 20.6374 78 17.8469 77.772C14.9934 77.5389 12.5789 77.0525 10.3742 75.9291C6.7991 74.1075 3.89247 71.2009 2.07088 67.6258C0.947527 65.4211 0.461096 63.0066 0.227951 60.1531C-4.05461e-05 57.3626 -2.2431e-05 53.9006 4.5721e-07 49.532V28.468C-2.2431e-05 24.0994 -4.05461e-05 20.6374 0.227951 17.8469C0.461096 14.9934 0.947528 12.5789 2.07088 10.3742C3.89247 6.7991 6.7991 3.89247 10.3742 2.07088C12.5789 0.947526 14.9934 0.461095 17.8469 0.22795C20.6374 -4.14997e-05 24.0994 -2.33846e-05 28.468 -4.96464e-07H49.532ZM4.7439 11.7362C3 15.1587 3 19.6392 3 28.6V49.4C3 58.3608 3 62.8413 4.7439 66.2638C6.27787 69.2744 8.72556 71.7221 11.7362 73.2561C15.1587 75 19.6392 75 28.6 75H49.4C58.3608 75 62.8413 75 66.2638 73.2561C69.2744 71.7221 71.7221 69.2744 73.2561 66.2638C75 62.8413 75 58.3608 75 49.4V28.6C75 19.6392 75 15.1587 73.2561 11.7362C71.7221 8.72556 69.2744 6.27787 66.2638 4.7439C62.8413 3 58.3608 3 49.4 3H28.6C19.6392 3 15.1587 3 11.7362 4.7439C8.72556 6.27787 6.27787 8.72556 4.7439 11.7362Z"
        fill="black" fillRule="evenodd"></path>
    <path clipRule="evenodd"
        d="M49.532 -4.96464e-07C53.9006 -2.33846e-05 57.3626 -4.14997e-05 60.1531 0.22795C63.0066 0.461095 65.4211 0.947527 67.6258 2.07088C71.2009 3.89247 74.1075 6.7991 75.9291 10.3742C77.0525 12.5789 77.5389 14.9934 77.772 17.8469C78 20.6374 78 24.0994 78 28.4679V49.5321C78 53.9006 78 57.3626 77.772 60.1531C77.5389 63.0066 77.0525 65.4211 75.9291 67.6258C74.1075 71.2009 71.2009 74.1075 67.6258 75.9291C65.4211 77.0525 63.0066 77.5389 60.1531 77.772C57.3626 78 53.9006 78 49.5321 78H28.4679C24.0994 78 20.6374 78 17.8469 77.772C14.9934 77.5389 12.5789 77.0525 10.3742 75.9291C6.7991 74.1075 3.89247 71.2009 2.07088 67.6258C0.947527 65.4211 0.461096 63.0066 0.227951 60.1531C-4.05461e-05 57.3626 -2.2431e-05 53.9006 4.5721e-07 49.532V28.468C-2.2431e-05 24.0994 -4.05461e-05 20.6374 0.227951 17.8469C0.461096 14.9934 0.947528 12.5789 2.07088 10.3742C3.89247 6.7991 6.7991 3.89247 10.3742 2.07088C12.5789 0.947526 14.9934 0.461095 17.8469 0.22795C20.6374 -4.14997e-05 24.0994 -2.33846e-05 28.468 -4.96464e-07H49.532ZM4.7439 11.7362C3 15.1587 3 19.6392 3 28.6V49.4C3 58.3608 3 62.8413 4.7439 66.2638C6.27787 69.2744 8.72556 71.7221 11.7362 73.2561C15.1587 75 19.6392 75 28.6 75H49.4C58.3608 75 62.8413 75 66.2638 73.2561C69.2744 71.7221 71.7221 69.2744 73.2561 66.2638C75 62.8413 75 58.3608 75 49.4V28.6C75 19.6392 75 15.1587 73.2561 11.7362C71.7221 8.72556 69.2744 6.27787 66.2638 4.7439C62.8413 3 58.3608 3 49.4 3H28.6C19.6392 3 15.1587 3 11.7362 4.7439C8.72556 6.27787 6.27787 8.72556 4.7439 11.7362Z"
        fill="url(#paint2_linear_1_13)" fillRule="evenodd"></path>
    <path
        d="M28.3999 54.1V23.1H40.1775C42.5903 23.1 44.6146 23.5137 46.2504 24.3412C47.8964 25.1687 49.1386 26.3292 49.9769 27.8227C50.8255 29.3061 51.2497 31.0367 51.2497 33.0146C51.2497 35.0025 50.8203 36.7281 49.9616 38.1913C49.113 39.6444 47.8606 40.7696 46.2044 41.5668C44.5481 42.3539 42.5136 42.7475 40.1009 42.7475H31.7124V38.0854H39.3341C40.7449 38.0854 41.9002 37.8936 42.7999 37.5102C43.6996 37.1166 44.3641 36.5465 44.7935 35.7997C45.2331 35.0429 45.4529 34.1145 45.4529 33.0146C45.4529 31.9146 45.2331 30.9761 44.7935 30.1991C44.3539 29.412 43.6842 28.8166 42.7846 28.413C41.8849 27.9993 40.7245 27.7924 39.3034 27.7924H34.0894V54.1H28.3999ZM44.6248 40.0531L52.3999 54.1H46.051L38.414 40.0531H44.6248Z"
        fill="url(#paint3_linear_1_13)"></path>
    <defs>
        <linearGradient gradientUnits="userSpaceOnUse" id="paint0_linear_1_13" x1="39" x2="39"
            y1="-20" y2="75">
            <stop stop-color="#4C4C57"></stop>
            <stop offset="0.444444" stop-color="#05050A"></stop>
            <stop offset="1"></stop>
        </linearGradient>
        <linearGradient gradientUnits="userSpaceOnUse" id="paint1_linear_1_13" x1="39" x2="39"
            y1="-20" y2="75">
            <stop stop-color="#4C4C57"></stop>
            <stop offset="0.444444" stop-color="#05050A"></stop>
            <stop offset="1"></stop>
        </linearGradient>
        <linearGradient gradientUnits="userSpaceOnUse" id="paint2_linear_1_13" x1="39" x2="39"
            y1="3" y2="75">
            <stop stop-color="white" stop-opacity="0.6"></stop>
            <stop offset="1" stop-color="white" stop-opacity="0.2"></stop>
        </linearGradient>
        <linearGradient gradientUnits="userSpaceOnUse" id="paint3_linear_1_13" x1="29.4492"
            x2="86.4298" y1="25.6833" y2="72.588">
            <stop stop-color="white"></stop>
            <stop offset="1" stop-color="white" stop-opacity="0"></stop>
        </linearGradient>
    </defs>
</svg>