<svg width="32" height="32" viewBox="0 0 32 32" fill="none" xmlns="http://www.w3.org/2000/svg">
<path d="M24.3332 8.00016C23.4492 8.00016 22.6065 8.17083 21.8278 8.47016C20.8805 6.98683 19.2238 6.00016 17.3332 6.00016C15.9285 6.00016 14.6545 6.5475 13.7018 7.43483C12.5432 6.1475 10.8685 5.3335 8.99984 5.3335C5.50184 5.3335 2.6665 8.16883 2.6665 11.6668C2.6665 12.1948 2.7385 12.7055 2.85984 13.1955C1.52717 14.2328 0.666504 15.8475 0.666504 17.6668C0.666504 20.7962 3.20384 23.3335 6.33317 23.3335C6.6085 23.3335 6.87717 23.3075 7.1425 23.2695C8.01784 25.2688 10.0112 26.6668 12.3332 26.6668C14.4412 26.6668 16.2772 25.5128 17.2532 23.8048C17.7038 23.9288 18.1765 24.0002 18.6665 24.0002C20.4132 24.0002 21.9585 23.1568 22.9318 21.8595C23.3845 21.9515 23.8532 22.0002 24.3332 22.0002C28.1992 22.0002 31.3332 18.8662 31.3332 15.0002C31.3332 11.1342 28.1992 8.00016 24.3332 8.00016Z" fill="#039BE5"/>
<path d="M10.5488 16.6667C10.5788 16.6667 10.5995 16.642 10.5995 16.6113C10.5995 16.642 10.5782 16.6667 10.5488 16.6667Z" fill="white"/>
<path d="M14.3354 15.9559C14.3514 15.9559 14.3668 15.9612 14.3721 15.9645C14.3668 15.9612 14.3521 15.9559 14.3368 15.9559H14.3354Z" fill="white"/>
<path d="M4.75879 15.9533C4.77412 15.9533 4.78879 15.9586 4.79746 15.964C4.78879 15.9593 4.77479 15.9526 4.76012 15.9526L4.75879 15.9533Z" fill="white"/>
<path d="M16.0841 14.606C16.0735 14.632 16.0535 14.636 16.0361 14.6346C16.0388 14.6353 16.0388 14.6366 16.0421 14.6366C16.0575 14.636 16.0748 14.6293 16.0841 14.606Z" fill="white"/>
<path d="M10.5488 12.6665C10.5788 12.6665 10.5995 12.6912 10.5995 12.7212C10.5995 12.6912 10.5782 12.6665 10.5488 12.6665Z" fill="white"/>
<path d="M14.2393 14.79C14.2393 15.062 14.3799 15.2314 14.5766 15.3467C14.3793 15.2314 14.2393 15.0627 14.2393 14.79Z" fill="white"/>
<path d="M6.50943 14.606C6.49876 14.632 6.47876 14.636 6.46143 14.6346C6.46409 14.6353 6.46409 14.6366 6.46743 14.6366C6.48343 14.636 6.50009 14.6293 6.50943 14.606Z" fill="white"/>
<path d="M23.4634 16.1094C23.5067 16.18 23.558 16.2447 23.616 16.3047C23.558 16.2454 23.5074 16.18 23.4634 16.1094Z" fill="white"/>
<path d="M25.22 14.5311C25.212 14.5311 25.2026 14.5298 25.2026 14.5298C25.2026 14.5298 25.2093 14.5325 25.2186 14.5325L25.22 14.5311Z" fill="white"/>
<path d="M25.2217 16.1259C25.2217 16.1259 25.233 16.1239 25.2443 16.1232L25.243 16.1226C25.231 16.1226 25.2217 16.1259 25.2217 16.1259Z" fill="white"/>
<path d="M4.59003 16.308C4.5707 16.3547 4.5967 16.364 4.60336 16.372C4.66136 16.4107 4.71936 16.4387 4.77803 16.4693C5.0907 16.622 5.3867 16.6667 5.69536 16.6667C6.3247 16.6667 6.71536 16.3587 6.71536 15.862V15.8527C6.71536 15.3933 6.27403 15.2267 5.8607 15.106L5.8067 15.09C5.4947 14.9967 5.22603 14.916 5.22603 14.7267V14.7173C5.22603 14.5553 5.38336 14.436 5.62736 14.436C5.89803 14.436 6.21936 14.5193 6.4267 14.6247C6.4267 14.6247 6.48803 14.6607 6.51003 14.6067C6.52203 14.5773 6.6267 14.3173 6.63803 14.2893C6.65003 14.2593 6.6287 14.236 6.60736 14.224C6.37003 14.0907 6.04336 14 5.70536 14L5.6427 14.0007C5.0667 14.0007 4.6647 14.3213 4.6647 14.7807V14.79C4.6647 15.274 5.10803 15.4313 5.52403 15.5407L5.5907 15.56C5.89336 15.6453 6.1547 15.7193 6.1547 15.9153V15.9253C6.1547 16.1047 5.9847 16.2387 5.71136 16.2387C5.6047 16.2387 5.2667 16.2373 4.9007 16.024C4.8567 16 4.83136 15.9833 4.79736 15.964C4.77936 15.9533 4.73403 15.936 4.7147 15.99L4.59003 16.308Z" fill="white"/>
<path d="M14.1647 16.308C14.1454 16.3547 14.1714 16.364 14.1781 16.372C14.2361 16.4107 14.2941 16.4387 14.3527 16.4693C14.6654 16.622 14.9614 16.6667 15.2701 16.6667C15.8994 16.6667 16.2901 16.3587 16.2901 15.862V15.8527C16.2901 15.3933 15.8487 15.2267 15.4354 15.106L15.3814 15.09C15.0694 14.9967 14.8007 14.916 14.8007 14.7267V14.7173C14.8007 14.5553 14.9581 14.436 15.2021 14.436C15.4727 14.436 15.7941 14.5193 16.0014 14.6247C16.0014 14.6247 16.0627 14.6607 16.0847 14.6067C16.0967 14.5773 16.2014 14.3173 16.2127 14.2893C16.2247 14.2593 16.2034 14.236 16.1821 14.224C15.9447 14.0907 15.6181 14 15.2801 14L15.2174 14.0007C14.6414 14.0007 14.2394 14.3213 14.2394 14.7807V14.79C14.2394 15.274 14.6834 15.4313 15.0987 15.5407L15.1654 15.56C15.4681 15.6453 15.7294 15.7193 15.7294 15.9153V15.9253C15.7294 16.1047 15.5594 16.2387 15.2861 16.2387C15.1794 16.2387 14.8414 16.2373 14.4754 16.024C14.4314 16 14.4054 15.984 14.3721 15.964C14.3607 15.9573 14.3074 15.938 14.2894 15.99L14.1647 16.308Z" fill="white"/>
<path d="M20.9769 14.8127C20.9256 14.6507 20.8449 14.508 20.7382 14.3893C20.6316 14.27 20.4956 14.1747 20.3349 14.1053C20.1742 14.0353 19.9849 14 19.7722 14C19.5589 14 19.3696 14.0353 19.2089 14.1047C19.0482 14.174 18.9129 14.27 18.8062 14.3893C18.6989 14.508 18.6189 14.6507 18.5676 14.812C18.5162 14.9727 18.4902 15.1487 18.4902 15.3353C18.4902 15.522 18.5162 15.698 18.5676 15.8587C18.6189 16.02 18.6989 16.1627 18.8062 16.282C18.9129 16.4013 19.0489 16.4967 19.2096 16.564C19.3702 16.6313 19.5589 16.6667 19.7722 16.6667C19.9849 16.6667 20.1736 16.6327 20.3349 16.5647C20.4956 16.4967 20.6309 16.4013 20.7382 16.2827C20.8449 16.164 20.9256 16.0213 20.9769 15.8593C21.0282 15.6987 21.0542 15.5227 21.0542 15.336C21.0542 15.1493 21.0282 14.9733 20.9769 14.8127ZM20.4516 15.336C20.4516 15.618 20.3949 15.8413 20.2829 15.998C20.1722 16.1533 20.0049 16.2293 19.7716 16.2293C19.5382 16.2293 19.3716 16.1533 19.2629 15.998C19.1522 15.8407 19.0969 15.618 19.0969 15.336C19.0969 15.054 19.1529 14.832 19.2629 14.676C19.3722 14.522 19.5389 14.4473 19.7722 14.4473C20.0056 14.4473 20.1722 14.522 20.2836 14.676C20.3949 14.8313 20.4516 15.054 20.4516 15.336Z" fill="white"/>
<path d="M25.2886 16.1553C25.2713 16.108 25.2213 16.126 25.2213 16.126C25.1453 16.1533 25.0639 16.178 24.9773 16.1907C24.8899 16.2033 24.7933 16.21 24.6899 16.21C24.4359 16.21 24.2339 16.14 24.0893 16.0013C23.9446 15.8627 23.8633 15.6387 23.8639 15.3353C23.8646 15.06 23.9366 14.8527 24.0653 14.694C24.1933 14.5367 24.3886 14.456 24.6479 14.456C24.8646 14.456 25.0299 14.4793 25.2026 14.5293C25.2026 14.5293 25.2439 14.546 25.2633 14.496C25.3099 14.3773 25.3433 14.2933 25.3926 14.1633C25.4066 14.126 25.3726 14.1107 25.3599 14.106C25.2919 14.0813 25.1313 14.0407 25.0099 14.0233C24.8966 14.0087 24.7633 14 24.6159 14C24.3953 14 24.1993 14.0353 24.0306 14.1047C23.8626 14.1733 23.7206 14.2693 23.6073 14.3887C23.4946 14.508 23.4093 14.65 23.3519 14.8113C23.2946 14.972 23.2666 15.1487 23.2666 15.336C23.2666 15.74 23.3839 16.066 23.6159 16.3047C23.8486 16.5453 24.1973 16.6667 24.6526 16.6667C24.9219 16.6667 25.1973 16.616 25.3966 16.544C25.3966 16.544 25.4346 16.5267 25.4179 16.486L25.2886 16.1553Z" fill="white"/>
<path d="M27.9751 14.7207C27.9304 14.564 27.8198 14.4067 27.7478 14.3347C27.6331 14.22 27.5211 14.14 27.4104 14.096C27.2651 14.038 27.0918 14 26.9011 14C26.6791 14 26.4778 14.0347 26.3144 14.106C26.1511 14.1773 26.0131 14.2747 25.9051 14.396C25.7971 14.5167 25.7164 14.6607 25.6644 14.824C25.6124 14.986 25.5864 15.1633 25.5864 15.35C25.5864 15.54 25.6138 15.7173 25.6671 15.8767C25.7211 16.0373 25.8078 16.1787 25.9244 16.296C26.0418 16.414 26.1918 16.506 26.3718 16.5707C26.5504 16.6347 26.7678 16.668 27.0171 16.6673C27.5304 16.666 27.8011 16.56 27.9124 16.5027C27.9324 16.492 27.9504 16.4747 27.9278 16.4233L27.8111 16.1213C27.7938 16.0767 27.7444 16.0927 27.7444 16.0927C27.6171 16.1367 27.4364 16.2153 27.0144 16.2147C26.7384 16.214 26.5344 16.1393 26.4064 16.0207C26.2751 15.9 26.2104 15.7227 26.1998 15.4727L27.9771 15.474C27.9771 15.474 28.0238 15.4733 28.0291 15.4307C28.0298 15.4127 28.0891 15.0913 27.9751 14.7207ZM26.2071 15.0647C26.2324 14.908 26.2784 14.7773 26.3511 14.676C26.4598 14.522 26.6258 14.4367 26.8591 14.4367C27.0924 14.4367 27.2464 14.522 27.3571 14.676C27.4304 14.778 27.4624 14.9133 27.4751 15.0653L26.2071 15.0647Z" fill="white"/>
<path d="M13.6352 14.7207C13.5906 14.564 13.4799 14.4067 13.4079 14.3347C13.2932 14.22 13.1819 14.14 13.0706 14.096C12.9252 14.038 12.7519 14 12.5619 14C12.3399 14 12.1386 14.0347 11.9746 14.106C11.8112 14.1773 11.6732 14.2747 11.5652 14.396C11.4572 14.5167 11.3766 14.6607 11.3246 14.824C11.2726 14.986 11.2466 15.1633 11.2466 15.35C11.2466 15.54 11.2739 15.7173 11.3272 15.8767C11.3812 16.0373 11.4679 16.1787 11.5846 16.296C11.7019 16.414 11.8519 16.506 12.0319 16.5707C12.2106 16.6347 12.4279 16.668 12.6772 16.6673C13.1906 16.666 13.4612 16.56 13.5726 16.5027C13.5926 16.492 13.6106 16.4747 13.5879 16.4233L13.4712 16.1213C13.4539 16.0767 13.4046 16.0927 13.4046 16.0927C13.2772 16.1367 13.0966 16.2153 12.6746 16.2147C12.3992 16.214 12.1946 16.1393 12.0666 16.0207C11.9352 15.9 11.8706 15.7227 11.8599 15.4727L13.6372 15.474C13.6372 15.474 13.6839 15.4733 13.6892 15.4307C13.6906 15.4127 13.7492 15.0913 13.6352 14.7207ZM11.8679 15.0647C11.8932 14.908 11.9392 14.7773 12.0112 14.676C12.1206 14.522 12.2859 14.4367 12.5199 14.4367C12.7532 14.4367 12.9072 14.522 13.0186 14.676C13.0919 14.778 13.1239 14.9133 13.1359 15.0653L11.8679 15.0647Z" fill="white"/>
<path d="M8.62 14.988C8.548 14.9833 8.45466 14.9807 8.34266 14.9807C8.19 14.9807 8.04266 14.998 7.90466 15.0327C7.766 15.0673 7.64133 15.1207 7.534 15.192C7.426 15.264 7.33933 15.3553 7.276 15.464C7.21266 15.5727 7.18066 15.7007 7.18066 15.8433C7.18066 15.9893 7.208 16.116 7.262 16.2193C7.316 16.3233 7.394 16.41 7.49333 16.4773C7.592 16.544 7.714 16.5933 7.85533 16.6227C7.996 16.6513 8.154 16.6667 8.32733 16.6667C8.51 16.6667 8.69133 16.6527 8.86733 16.6247C9.042 16.5973 9.25533 16.5573 9.31466 16.544C9.374 16.5313 9.43933 16.5147 9.43933 16.5147C9.48333 16.504 9.48 16.4607 9.48 16.4607L9.47933 14.9547C9.47933 14.624 9.384 14.3793 9.19733 14.2273C9.01 14.0767 8.73466 14 8.38 14C8.24666 14 8.03266 14.0167 7.90333 14.0407C7.90333 14.0407 7.51533 14.1107 7.356 14.2267C7.356 14.2267 7.32066 14.2467 7.34 14.292L7.466 14.6053C7.482 14.646 7.52466 14.632 7.52466 14.632C7.52466 14.632 7.538 14.6273 7.554 14.618C7.89533 14.446 8.328 14.4507 8.328 14.4507C8.52 14.4507 8.668 14.4867 8.76733 14.5573C8.864 14.6267 8.91333 14.73 8.91333 14.95V15.02C8.76066 14.9993 8.62 14.988 8.62 14.988ZM7.91266 16.1453C7.84266 16.094 7.83333 16.0813 7.81066 16.0473C7.77533 15.9967 7.75733 15.9247 7.75733 15.8333C7.75733 15.6887 7.80933 15.5847 7.916 15.5147C7.916 15.5147 8.06933 15.3913 8.43133 15.3953C8.686 15.398 8.914 15.4333 8.914 15.4333V16.182C8.914 16.182 8.688 16.2267 8.434 16.2407C8.07266 16.2613 7.91133 16.1447 7.91266 16.1453Z" fill="white"/>
<path d="M23.1736 14.1126C23.1869 14.0739 23.1589 14.0559 23.1469 14.0513C23.1169 14.0406 22.9656 14.0099 22.8489 14.0026C22.6256 13.9899 22.5016 14.0253 22.3902 14.0733C22.2796 14.1206 22.1576 14.1979 22.0902 14.2853L22.0896 14.0779C22.0896 14.0493 22.0682 14.0266 22.0389 14.0266H21.5829C21.5529 14.0266 21.5322 14.0493 21.5322 14.0779V16.6153C21.5322 16.6439 21.5562 16.6666 21.5862 16.6666H22.0529C22.0829 16.6666 22.1062 16.6439 22.1062 16.6153V15.3479C22.1062 15.1773 22.1262 15.0079 22.1656 14.9013C22.2036 14.7959 22.2562 14.7113 22.3209 14.6513C22.3856 14.5906 22.4596 14.5486 22.5409 14.5246C22.6236 14.5006 22.7149 14.4919 22.7789 14.4919C22.8722 14.4919 22.9742 14.5153 22.9742 14.5153C23.0089 14.5186 23.0276 14.4986 23.0396 14.4693C23.0709 14.3919 23.1576 14.1586 23.1736 14.1126Z" fill="white"/>
<path d="M18.8019 12.7372C18.7452 12.7199 18.6939 12.7079 18.6259 12.6959C18.5572 12.6832 18.4766 12.6772 18.3846 12.6772C18.0632 12.6772 17.8099 12.7686 17.6319 12.9479C17.4552 13.1259 17.3346 13.3972 17.2746 13.7539L17.2412 13.9979H16.8379C16.8379 13.9979 16.7886 13.9959 16.7786 14.0499L16.7126 14.4192C16.7079 14.4546 16.7232 14.4766 16.7706 14.4766H17.1639L16.7652 16.7012C16.7339 16.8799 16.6986 17.0272 16.6586 17.1392C16.6199 17.2499 16.5812 17.3319 16.5346 17.3919C16.4892 17.4499 16.4459 17.4926 16.3719 17.5179C16.3106 17.5379 16.2399 17.5479 16.1626 17.5479C16.1199 17.5479 16.0626 17.5406 16.0199 17.5319C15.9772 17.5239 15.9552 17.5146 15.9239 17.5012C15.9239 17.5012 15.8779 17.4839 15.8592 17.5299C15.8446 17.5679 15.7406 17.8559 15.7279 17.8912C15.7152 17.9266 15.7326 17.9539 15.7552 17.9619C15.8072 17.9806 15.8466 17.9926 15.9172 18.0092C16.0166 18.0326 16.0999 18.0339 16.1779 18.0339C16.3412 18.0339 16.4906 18.0112 16.6139 17.9666C16.7386 17.9212 16.8466 17.8432 16.9426 17.7379C17.0459 17.6232 17.1112 17.5032 17.1732 17.3399C17.2352 17.1779 17.2872 16.9772 17.3299 16.7426L17.7299 14.4766H18.3152C18.3152 14.4766 18.3646 14.4786 18.3746 14.4246L18.4406 14.0552C18.4452 14.0199 18.4299 13.9979 18.3826 13.9979H17.8139C17.8166 13.9852 17.8539 13.6612 17.9192 13.4732C17.9472 13.3926 17.9992 13.3279 18.0439 13.2832C18.0872 13.2392 18.1379 13.2086 18.1926 13.1906C18.2492 13.1726 18.3132 13.1632 18.3832 13.1632C18.4366 13.1632 18.4892 13.1692 18.5292 13.1779C18.5839 13.1899 18.6059 13.1959 18.6206 13.1999C18.6786 13.2179 18.6859 13.2006 18.6979 13.1726L18.8332 12.7992C18.8486 12.7592 18.8146 12.7426 18.8019 12.7372Z" fill="white"/>
<path d="M10.5995 16.6115C10.5995 16.6421 10.5782 16.6668 10.5489 16.6668H10.0775C10.0475 16.6668 10.0269 16.6421 10.0269 16.6115V12.7221C10.0269 12.6915 10.0482 12.6675 10.0775 12.6675H10.5489C10.5789 12.6675 10.5995 12.6921 10.5995 12.7221V16.6115Z" fill="white"/>
</svg>
