<svg width="24" height="24" viewBox="0 0 24 24" fill="none" xmlns="http://www.w3.org/2000/svg">
<g id="shopify">
<path id="Vector" fill-rule="evenodd" clip-rule="evenodd" d="M9.89153 8.72949C9.8804 8.72949 9.85887 8.72949 9.84775 8.72949C9.66304 8.70697 9.51098 8.5377 9.51098 8.34592C9.49985 8.16535 9.4019 3.94554 11.7824 2.98653C12.3803 2.74957 12.9351 2.79467 13.4025 3.14451C13.9781 3.56197 14.3913 4.39688 14.6413 5.61544C14.8149 6.47294 14.8475 7.21757 14.8475 7.25145C14.8586 7.43194 14.7177 7.5674 14.5323 7.53352C14.3475 7.51093 14.1955 7.34174 14.1955 7.16117C14.1629 6.39395 13.9129 4.28408 13.0872 3.67476C12.8261 3.48298 12.4997 3.46039 12.1088 3.61836C10.0651 4.44198 10.163 8.40232 10.163 8.44742C10.163 8.6054 10.0547 8.72949 9.89153 8.72949Z" fill="#595961"/>
<path id="Vector_2" opacity="0.46" fill-rule="evenodd" clip-rule="evenodd" d="M13.2822 3.1674C12.8475 2.85144 12.3371 2.80634 11.7822 3.02071C10.8149 3.41558 10.1303 4.45365 9.79348 6.03327C9.54349 7.19535 9.5761 8.24471 9.5761 8.28982C9.5761 8.34622 9.59763 8.40269 9.64139 8.44779C9.68442 8.4929 9.72819 8.52678 9.78234 8.52678C9.79346 8.52678 9.8046 8.52678 9.81498 8.52678C9.9129 8.52678 9.9893 8.44779 9.9893 8.34622C9.9893 8.30111 9.89141 4.27308 11.9892 3.42688C12.4128 3.25768 12.7822 3.28019 13.0871 3.50586C13.9669 4.14899 14.228 6.32663 14.2606 7.10514C14.2606 7.21794 14.3586 7.33081 14.478 7.34203C14.587 7.35333 14.6738 7.27434 14.6738 7.16154C14.6627 7.02616 14.5433 4.09259 13.2822 3.1674Z" fill="#B2B2C2"/>
<path id="Vector_3" opacity="0.46" fill-rule="evenodd" clip-rule="evenodd" d="M9.79337 8.39137C9.78225 8.39137 9.78225 8.39137 9.77187 8.39137C9.70659 8.38008 9.65167 8.31239 9.64129 8.24469C9.64129 8.19951 9.60867 7.17282 9.85866 6.01066C10.1843 4.46493 10.8697 3.43815 11.8148 3.05451C12.3474 2.84013 12.8259 2.88531 13.2391 3.17867C14.4564 4.06998 14.5758 6.95844 14.5758 7.08253C14.5758 7.15023 14.5217 7.19533 14.4564 7.18411C14.3911 7.17282 14.3369 7.11642 14.3258 7.03743C14.3258 7.00355 14.2064 4.17156 13.1085 3.35916C12.7821 3.12227 12.3801 3.08839 11.9238 3.26888C9.79338 4.16027 9.89131 8.24469 9.89131 8.2898C9.90169 8.3462 9.85865 8.39137 9.79337 8.39137Z" fill="#B2B2C2"/>
<path id="Vector_4" opacity="0.62" fill-rule="evenodd" clip-rule="evenodd" d="M10.6742 5.16447C10.761 4.99527 10.8477 4.826 10.9241 4.64551C10.8915 4.70191 10.6741 5.28863 10.011 5.19835C9.99984 5.19835 10.4019 5.32244 10.6742 5.16447Z" fill="#595961"/>
<path id="Vector_5" opacity="0.62" fill-rule="evenodd" clip-rule="evenodd" d="M10.4343 5.88585C10.4996 5.70529 10.5648 5.5135 10.6086 5.33301C10.5871 5.4007 10.478 6.00994 9.78223 6.00994C9.78223 6.00994 10.1843 6.08893 10.4343 5.88585Z" fill="#595961"/>
<path id="Vector_6" opacity="0.62" fill-rule="evenodd" clip-rule="evenodd" d="M14.2496 4.43103C14.1628 4.22788 14.0648 4.03609 13.9669 3.83301C13.9996 3.9007 14.326 4.54383 13.9565 5.00639C13.9565 5.00639 14.2392 4.78079 14.2496 4.43103Z" fill="#595961"/>
<path id="Vector_7" opacity="0.62" fill-rule="evenodd" clip-rule="evenodd" d="M13.6524 3.41495C13.4781 3.26827 13.3045 3.13288 13.1301 3.00879C13.1954 3.06519 13.7718 3.48265 13.7391 4.11455C13.728 4.11455 13.826 3.7422 13.6524 3.41495Z" fill="#595961"/>
<path id="Vector_8" opacity="0.62" fill-rule="evenodd" clip-rule="evenodd" d="M10.9891 4.54356C11.1197 4.40817 11.228 4.26149 11.3474 4.10352C11.3044 4.14862 10.9454 4.61125 10.3044 4.44198C10.3044 4.44198 10.6738 4.64514 10.9891 4.54356Z" fill="#595961"/>
<path id="Vector_9" opacity="0.62" fill-rule="evenodd" clip-rule="evenodd" d="M11.3912 4.02457C11.5433 3.91177 11.6842 3.7989 11.8259 3.6748C11.7718 3.70869 11.326 4.08097 10.7065 3.81019C10.7065 3.81019 11.0648 4.06967 11.3912 4.02457Z" fill="#595961"/>
<path id="Vector_10" opacity="0.62" fill-rule="evenodd" clip-rule="evenodd" d="M11.9782 3.65178C12.1629 3.59538 12.3373 3.52768 12.5108 3.45999C12.4456 3.48251 11.8914 3.68559 11.3477 3.25684C11.3588 3.25684 11.6414 3.59538 11.9782 3.65178Z" fill="#595961"/>
<path id="Vector_11" opacity="0.62" fill-rule="evenodd" clip-rule="evenodd" d="M12.5108 3.44938C12.6629 3.47197 12.8149 3.48327 12.967 3.49457C12.9128 3.48327 12.4343 3.44939 12.1628 2.99805C12.1628 2.99805 12.2719 3.3027 12.5108 3.44938Z" fill="#595961"/>
<path id="Vector_12" opacity="0.62" fill-rule="evenodd" clip-rule="evenodd" d="M13.1413 3.69669C13.2496 3.82086 13.3698 3.94495 13.4996 4.05775C13.4566 4.01265 13.0872 3.6403 13.174 3.17773C13.1628 3.17773 13.0434 3.43721 13.1413 3.69669Z" fill="#595961"/>
<path id="Vector_13" opacity="0.74" fill-rule="evenodd" clip-rule="evenodd" d="M14.4564 7.02541C14.4564 6.90124 14.337 4.04667 13.1523 3.17795C12.9238 3.00868 12.6738 2.92969 12.4127 2.92969C12.2169 2.92969 12.0106 2.97479 11.7933 3.06507C10.8475 3.43743 10.1843 4.44161 9.85866 5.97605C9.60867 7.12691 9.64129 8.15368 9.64129 8.19879C9.64129 8.23267 9.67394 8.26648 9.70658 8.26648H9.71695C9.74959 8.26648 9.77187 8.24397 9.77187 8.21008C9.77187 8.16498 9.6628 4.04667 11.8474 3.16665C12.3259 2.97479 12.7391 3.00868 13.087 3.26816C14.2168 4.09185 14.3369 6.96901 14.3369 7.00282C14.3369 7.0367 14.3696 7.07051 14.4022 7.07051C14.4022 7.07051 14.4022 7.07051 14.4126 7.07051C14.4349 7.08181 14.4564 7.05922 14.4564 7.02541Z" fill="url(#paint0_linear_646_39752)"/>
<path id="Vector_14" fill-rule="evenodd" clip-rule="evenodd" d="M14.6411 5.61558C14.3911 4.39702 13.978 3.57333 13.4023 3.14458C13.0871 2.91899 12.7495 2.81741 12.3801 2.84C12.6739 2.86251 12.9454 2.96409 13.1954 3.14458C13.7718 3.56211 14.185 4.39702 14.4349 5.61558C14.6085 6.47308 14.6411 7.21771 14.6411 7.2516C14.6411 7.38698 14.5759 7.48856 14.4668 7.52237C14.4891 7.53366 14.5106 7.53367 14.5217 7.53367C14.7065 7.55625 14.8474 7.43209 14.837 7.2516C14.8474 7.21771 14.8147 6.48438 14.6411 5.61558Z" fill="url(#paint1_linear_646_39752)"/>
<path id="Vector_15" fill-rule="evenodd" clip-rule="evenodd" d="M11.9023 3.61877C9.85866 4.44238 9.95654 8.40272 9.95654 8.44782C9.95654 8.58321 9.89127 8.68479 9.78223 8.7186C9.80448 8.72989 9.81489 8.72989 9.83715 8.72989C9.84753 8.72989 9.86977 8.72989 9.88016 8.72989C10.0434 8.72989 10.1516 8.6058 10.1516 8.44782C10.1516 8.40272 10.0545 4.45368 12.0974 3.63006C12.2391 3.57366 12.3696 3.53978 12.4891 3.52848C12.3147 3.49467 12.1197 3.52848 11.9023 3.61877Z" fill="url(#paint2_linear_646_39752)"/>
<path id="Vector_16" fill-rule="evenodd" clip-rule="evenodd" d="M14.9995 4.60006L5.78259 7.55614C5.78259 7.55614 5.39166 7.66901 5.29374 7.7931C5.19582 7.9172 5.1743 8.26696 5.1743 8.26696L3.75 19.6627L14.4454 21.7388L15.2718 4.58877C15.1523 4.56618 15.0322 4.58877 14.9995 4.60006Z" fill="url(#paint3_linear_646_39752)"/>
<path id="Vector_17" fill-rule="evenodd" clip-rule="evenodd" d="M18.1849 6.06691C18.1849 6.06691 18.1738 5.97662 18.1196 5.94281C18.0758 5.90893 18.0217 5.90893 18.0217 5.90893L16.5106 5.79613L15.4023 4.65656C15.3586 4.62268 15.3148 4.60016 15.2607 4.58887L14.4351 21.7389L20.2278 20.4414L18.1849 6.06691Z" fill="url(#paint4_linear_646_39752)"/>
<path id="Vector_18" fill-rule="evenodd" clip-rule="evenodd" d="M11.1955 14.1231C11.0323 13.8974 10.8372 13.6943 10.6414 13.5138C10.4455 13.3333 10.2393 13.1866 10.0323 13.0512C9.8914 12.9609 9.76084 12.8707 9.6518 12.7804C9.54349 12.6902 9.45669 12.5999 9.39141 12.5209C9.32613 12.4306 9.27197 12.3516 9.23933 12.2614C9.20669 12.1711 9.19555 12.0808 9.19555 11.9906C9.19555 11.8665 9.22821 11.7424 9.27197 11.6408C9.315 11.5393 9.39141 11.449 9.46707 11.37C9.5546 11.291 9.65179 11.2346 9.77196 11.1895C9.89139 11.1444 10.0323 11.1218 10.1844 11.1105C10.3476 11.0993 10.5108 11.1106 10.6629 11.1218C10.8149 11.1331 10.9566 11.1669 11.0976 11.2008C11.2281 11.2346 11.3587 11.2797 11.467 11.3249C11.576 11.37 11.6843 11.4151 11.7607 11.4603L12.4781 9.24887C12.3698 9.19247 12.2392 9.13599 12.0975 9.10218C11.9455 9.05701 11.7823 9.0232 11.5975 9.00061C11.4128 8.97809 11.217 8.9668 11.0108 8.9668C10.8045 8.9668 10.5872 8.97809 10.3587 9.0119C9.86989 9.07959 9.43444 9.21498 9.04351 9.41806C8.67409 9.60992 8.34768 9.85811 8.07618 10.1628C7.81507 10.4561 7.60883 10.7946 7.45676 11.1782C7.31507 11.5506 7.2283 11.9681 7.20679 12.4193C7.19566 12.6902 7.21716 12.9384 7.28244 13.164C7.3366 13.3897 7.42412 13.6041 7.54355 13.8071C7.65186 14.0102 7.79353 14.1908 7.94561 14.36C8.09768 14.5293 8.28239 14.6872 8.4671 14.8339C8.61917 14.9467 8.74974 15.0595 8.85878 15.1611C8.96709 15.2627 9.05463 15.3642 9.11917 15.477C9.18445 15.5785 9.2282 15.6801 9.26084 15.7929C9.29348 15.8945 9.30461 16.0073 9.29348 16.1202C9.29348 16.233 9.26087 16.3458 9.2171 16.436C9.17408 16.5263 9.11916 16.6166 9.03237 16.6843C8.95671 16.752 8.8588 16.7971 8.74976 16.8197C8.64145 16.8422 8.5109 16.8535 8.36921 16.831C8.20675 16.8084 8.04353 16.7633 7.89145 16.6955C7.73938 16.6391 7.58661 16.5601 7.44566 16.4812C7.30472 16.4022 7.17416 16.312 7.06512 16.233C6.94569 16.154 6.84775 16.0637 6.77209 15.996L6.28247 17.6772C6.35888 17.79 6.46721 17.8916 6.58664 17.9931C6.70681 18.0947 6.84777 18.1962 7.01097 18.2977C7.17416 18.388 7.34775 18.4782 7.53246 18.5572C7.71717 18.6362 7.92411 18.7039 8.13033 18.7604H8.14147H8.15184H8.16298H8.17411C8.6192 18.8619 9.0435 18.8845 9.44556 18.8281C9.85875 18.7716 10.2393 18.6249 10.5649 18.3993C10.9017 18.1623 11.174 17.8464 11.3802 17.4289C11.5871 17.0115 11.7066 16.5037 11.7281 15.9283C11.7392 15.5673 11.6955 15.2514 11.5975 14.958C11.4996 14.6195 11.3587 14.36 11.1955 14.1231Z" fill="url(#paint5_linear_646_39752)"/>
<path id="Vector_19" opacity="0.226763" fill-rule="evenodd" clip-rule="evenodd" d="M6.35287 17.7686C6.32765 17.7387 6.30389 17.7082 6.28237 17.6768L6.77199 15.9956C6.77867 16.0019 6.78608 16.0084 6.7935 16.015C6.86619 16.08 6.95672 16.1609 7.06502 16.2326C7.17407 16.3115 7.30462 16.4018 7.44557 16.4808C7.58651 16.5597 7.73929 16.6387 7.89136 16.6952C8.04343 16.7629 8.20666 16.808 8.36911 16.8306C8.5108 16.8531 8.64136 16.8419 8.74966 16.8193C8.85871 16.7967 8.95661 16.7516 9.03228 16.6839C9.11907 16.6162 9.17398 16.5259 9.217 16.4356C9.26077 16.3454 9.29338 16.2326 9.29338 16.1198C9.30451 16.0069 9.29338 15.8941 9.26074 15.7925C9.2281 15.6797 9.18435 15.5781 9.11907 15.4766C9.0575 15.3694 8.97589 15.2724 8.87426 15.1758C8.92767 15.2361 8.97294 15.2981 9.01077 15.3638C9.07605 15.4653 9.11907 15.5668 9.15171 15.6797C9.18435 15.7812 9.19549 15.8941 9.18436 16.0069C9.18436 16.1198 9.15173 16.2326 9.1087 16.3228C9.06493 16.4131 9.01077 16.5033 8.92397 16.571C8.84757 16.6387 8.74966 16.6839 8.64136 16.7064C8.53231 16.729 8.40176 16.7403 8.26081 16.7177C8.09761 16.6952 7.9344 16.65 7.78233 16.5823C7.63026 16.5259 7.47818 16.4469 7.3365 16.3679C7.19555 16.289 7.06502 16.1987 6.95672 16.1198C6.84767 16.0481 6.75717 15.9672 6.68447 15.9022C6.67705 15.8956 6.67034 15.8891 6.66292 15.8828L6.17407 17.5639C6.22229 17.6357 6.28388 17.703 6.35287 17.7686ZM7.95443 14.3698C7.91363 14.3295 7.87431 14.2885 7.83648 14.2468C7.68441 14.0775 7.54347 13.897 7.43443 13.6939C7.315 13.4908 7.2282 13.2764 7.17404 13.0508C7.10877 12.8251 7.08649 12.5769 7.09762 12.3061C7.11913 11.8548 7.20669 11.4373 7.34763 11.065C7.4997 10.6814 7.70669 10.3429 7.96706 10.0496C8.2393 9.7449 8.56492 9.49664 8.93434 9.30486C9.32602 9.10178 9.76072 8.96639 10.2496 8.89869C10.4781 8.86481 10.6954 8.85352 10.9016 8.85352C11.1086 8.85352 11.3044 8.86481 11.4891 8.8874C11.6739 8.90999 11.8371 8.9438 11.9891 8.98898C12.1301 9.02279 12.2606 9.07918 12.3697 9.13558L12.3526 9.18836C12.274 9.15419 12.1879 9.1234 12.0974 9.10177C11.9454 9.05667 11.7822 9.02279 11.5974 9.0002C11.4127 8.97768 11.2169 8.96639 11.0107 8.96639C10.8044 8.96639 10.5871 8.97768 10.3586 9.01149C9.86979 9.07919 9.43435 9.21457 9.04341 9.41773C8.67399 9.60951 8.34759 9.8577 8.07608 10.1624C7.81497 10.4557 7.60873 10.7942 7.45666 11.1778C7.31497 11.5502 7.2282 11.9676 7.20669 12.4189C7.19556 12.6898 7.21707 12.9379 7.28235 13.1636C7.3365 13.3893 7.42402 13.6037 7.54345 13.8067C7.65176 14.0098 7.79344 14.1904 7.94551 14.3596C7.94848 14.363 7.95146 14.3664 7.95443 14.3698ZM9.43062 12.5667C9.48996 12.6338 9.56417 12.7069 9.6517 12.78C9.76075 12.8702 9.8913 12.9605 10.0322 13.0508C10.2392 13.1862 10.4454 13.3329 10.6413 13.5134C10.6984 13.5659 10.7548 13.6203 10.8111 13.6767C10.7206 13.5794 10.6264 13.4874 10.5322 13.4006C10.3371 13.22 10.1302 13.0733 9.92395 12.9379C9.78226 12.8477 9.6517 12.7575 9.5434 12.6672C9.5026 12.6335 9.46548 12.5998 9.43062 12.5667Z" fill="black"/>
<path id="Vector_20" opacity="0.41" fill-rule="evenodd" clip-rule="evenodd" d="M16.8799 18.5453L16.5105 5.79558L16.4452 5.72789L16.6196 18.3647C16.6196 18.3647 15.087 20.7793 14.8585 20.7116C14.5217 20.6101 15.5217 4.7801 15.5217 4.7801L15.4126 4.6673C15.3696 4.63342 15.3147 4.6109 15.2717 4.59961L14.4565 21.5127L14.4453 21.7496L14.7279 21.3773L16.8799 18.5453Z" fill="url(#paint6_linear_646_39752)"/>
<path id="Vector_21" fill-rule="evenodd" clip-rule="evenodd" d="M12.7168 5.33309C12.587 5.86334 12.4239 6.35979 12.3044 6.66445C12.228 6.84501 12.3148 7.01421 12.478 7.0368C12.6523 7.05939 12.8474 6.93522 12.9127 6.75473C12.9238 6.72085 13.2168 5.98751 13.4023 5.11871V5.10742L12.7168 5.33309Z" fill="url(#paint7_linear_646_39752)"/>
<path id="Vector_22" fill-rule="evenodd" clip-rule="evenodd" d="M7.81502 6.91287C7.66294 7.25134 7.51087 7.54471 7.40182 7.74779C7.30465 7.91706 7.35879 8.09755 7.52199 8.14265C7.68444 8.19912 7.90178 8.09755 7.9997 7.92828C8.01082 7.90576 8.32613 7.35292 8.60875 6.65332L7.81502 6.91287Z" fill="url(#paint8_linear_646_39752)"/>
<path id="Vector_23" opacity="0.32" fill-rule="evenodd" clip-rule="evenodd" d="M14.4453 21.739L16.8799 18.5459L20.25 20.4415L14.4453 21.739Z" fill="url(#paint9_linear_646_39752)"/>
<path id="Vector_24" opacity="0.19" fill-rule="evenodd" clip-rule="evenodd" d="M14.4453 21.739L16.8584 18.5459L20.25 20.4415L14.4453 21.739Z" fill="url(#paint10_linear_646_39752)"/>
<path id="Vector_25" opacity="0.19" fill-rule="evenodd" clip-rule="evenodd" d="M14.4453 21.739L16.8584 18.5459L20.25 20.4415L14.4453 21.739Z" fill="url(#paint11_linear_646_39752)"/>
<path id="Vector_26" opacity="0.6" fill-rule="evenodd" clip-rule="evenodd" d="M12.076 12.8023C13.3371 14.5737 14.1849 16.4918 14.6085 18.3534L15.2717 4.57702C15.1523 4.5545 15.0321 4.57702 14.9995 4.58831L5.78254 7.55576C5.78254 7.55576 5.69572 7.57827 5.58667 7.62345C7.9241 8.45836 10.2608 10.2524 12.076 12.8023Z" fill="url(#paint12_linear_646_39752)"/>
<path id="Vector_27" fill-rule="evenodd" clip-rule="evenodd" d="M18.1299 5.95435C18.1847 5.99953 18.1848 6.06722 18.1848 6.06722L20.2062 20.4303L16.8799 18.5348L16.5105 5.78516L18 5.89795C18.0104 5.90925 18.0757 5.90925 18.1299 5.95435Z" fill="url(#paint13_linear_646_39752)"/>
<path id="Vector_28" fill-rule="evenodd" clip-rule="evenodd" d="M17.8911 5.98811C17.8911 5.98811 17.9564 5.98811 18.0105 6.04451C18.0647 6.08969 18.0758 6.15738 18.0758 6.15738L20.0653 20.3626L20.2174 20.4528L18.1952 6.07839C18.1952 6.07839 18.1848 6.0107 18.1411 5.96559C18.0869 5.92042 18.0105 5.92042 18.0105 5.92042L16.5217 5.80762L17.8911 5.98811Z" fill="url(#paint14_linear_646_39752)"/>
<path id="Vector_29" fill-rule="evenodd" clip-rule="evenodd" d="M3.75 19.6622L14.4454 21.7383L14.9676 9.98145L5.08004 10.2625L3.75 19.6622Z" fill="url(#paint15_linear_646_39752)"/>
<path id="Vector_30" opacity="0.3" fill-rule="evenodd" clip-rule="evenodd" d="M7.26086 7.72031C7.16369 7.99455 7.25937 8.28267 7.47597 8.36402C7.69184 8.4453 7.94555 8.28895 8.04347 8.01478C8.14064 7.74061 8.04422 7.45241 7.82836 7.37113C7.61249 7.28978 7.35804 7.44614 7.26086 7.72031Z" fill="white"/>
<path id="Vector_31" opacity="0.89" fill-rule="evenodd" clip-rule="evenodd" d="M7.24903 7.5905C7.15185 7.86467 7.24827 8.15286 7.46414 8.23414C7.68001 8.31549 7.93446 8.15914 8.03163 7.88497C8.12881 7.61072 8.03313 7.32253 7.81652 7.24125C7.60066 7.1599 7.34695 7.31625 7.24903 7.5905Z" fill="black"/>
<path id="Vector_32" fill-rule="evenodd" clip-rule="evenodd" d="M16.5216 5.79613L15.4126 4.65656C15.3696 4.62268 15.3147 4.60016 15.2717 4.58887L14.4453 21.7389L16.891 18.5345L16.5216 5.79613Z" fill="url(#paint16_linear_646_39752)"/>
<path id="Vector_33" fill-rule="evenodd" clip-rule="evenodd" d="M14.9996 4.59993L5.78262 7.556C5.78262 7.556 5.39169 7.66888 5.29377 7.79297C5.28264 7.80426 5.2826 7.81556 5.27222 7.82685L14.5649 5.16406C14.6413 5.14147 14.826 5.07378 14.8045 5.62663L14.2392 21.7161L14.4351 21.75L15.2607 4.59993C15.1524 4.56604 15.0322 4.58863 14.9996 4.59993Z" fill="url(#paint17_linear_646_39752)"/>
<path id="Vector_34" fill-rule="evenodd" clip-rule="evenodd" d="M14.9996 4.59993L5.78262 7.556C5.78262 7.556 5.39169 7.66888 5.29377 7.79297C5.28264 7.80426 5.2826 7.81556 5.27222 7.82685L7.4242 7.20624L14.826 4.8256C14.8586 4.8143 14.9781 4.79171 15.0975 4.8143L14.2822 21.7161L14.4351 21.75L15.2607 4.59993C15.1524 4.56604 15.0322 4.58863 14.9996 4.59993Z" fill="url(#paint18_linear_646_39752)"/>
<path id="Vector_35" opacity="0.32" fill-rule="evenodd" clip-rule="evenodd" d="M17.3696 18.8162L16.88 18.5342L14.4351 21.7385L14.5649 21.7046C14.5649 21.7046 16.7176 18.8275 16.9127 18.7373C17.0544 18.6809 17.3696 18.8162 17.3696 18.8162Z" fill="url(#paint19_linear_646_39752)"/>
<path id="Vector_36" opacity="0.57" fill-rule="evenodd" clip-rule="evenodd" d="M14.4453 21.7385L16.891 18.5342C16.8799 18.5455 15.337 20.2943 14.4453 21.7385Z" fill="url(#paint20_linear_646_39752)"/>
<path id="Vector_37" opacity="0.46" fill-rule="evenodd" clip-rule="evenodd" d="M20.25 20.4415L16.8911 18.5459C16.88 18.5459 17.2717 18.6136 20.25 20.4415Z" fill="url(#paint21_linear_646_39752)"/>
<path id="Vector_38" opacity="0.3" fill-rule="evenodd" clip-rule="evenodd" d="M12.2304 6.59528C12.1325 6.86952 12.229 7.15772 12.4448 7.23907C12.6614 7.32042 12.9151 7.16407 13.0123 6.8899C13.1102 6.61565 13.0138 6.32746 12.7979 6.24611C12.5821 6.16483 12.3276 6.32111 12.2304 6.59528Z" fill="white"/>
<path id="Vector_39" opacity="0.89" fill-rule="evenodd" clip-rule="evenodd" d="M12.2185 6.46542C12.1213 6.73967 12.2178 7.02786 12.4337 7.10921C12.6495 7.19049 12.9039 7.03421 13.0011 6.75997C13.0983 6.4858 13.0026 6.1976 12.7867 6.11625C12.5701 6.0349 12.3164 6.19125 12.2185 6.46542Z" fill="black"/>
<path id="Vector_40" fill-rule="evenodd" clip-rule="evenodd" d="M7.64149 8.14257C7.63037 8.14257 7.60884 8.14257 7.59771 8.14257C7.42413 8.12006 7.30472 7.95079 7.32623 7.759C7.34775 7.57844 7.96713 3.35862 10.5108 2.39962C11.1517 2.16265 11.6954 2.20776 12.1086 2.5576C12.6086 2.97505 12.8801 3.80996 12.9239 5.02852C12.9565 5.88602 12.8586 6.63065 12.8586 6.66454C12.8371 6.84503 12.6739 6.98049 12.4996 6.94661C12.326 6.92402 12.1954 6.75482 12.2281 6.57426C12.326 5.80704 12.4343 3.69717 11.7066 3.08785C11.4781 2.89606 11.1629 2.87347 10.7393 3.03145C8.55468 3.85507 7.97826 7.8154 7.97826 7.84921C7.93449 8.01848 7.80469 8.14257 7.64149 8.14257Z" fill="#595961"/>
<path id="Vector_41" opacity="0.46" fill-rule="evenodd" clip-rule="evenodd" d="M11.978 2.58041C11.5975 2.26454 11.0975 2.21943 10.4996 2.43381C9.46701 2.82867 8.59757 3.86667 7.99968 5.43499C7.55459 6.59715 7.4018 7.64644 7.4018 7.69161C7.39142 7.74801 7.41294 7.80441 7.44558 7.84959C7.47822 7.8947 7.52196 7.92858 7.57612 7.92858C7.5865 7.92858 7.59763 7.92858 7.60876 7.92858C7.70668 7.92858 7.79345 7.84959 7.80458 7.74801C7.81497 7.70291 8.39138 3.67488 10.6413 2.82867C11.0975 2.6594 11.4669 2.68199 11.728 2.90766C12.4995 3.55079 12.3912 5.72835 12.2933 6.50687C12.2821 6.61974 12.3586 6.73253 12.4669 6.74383C12.5759 6.75512 12.6842 6.67614 12.6953 6.56334C12.7065 6.43917 13.087 3.50568 11.978 2.58041Z" fill="#B2B2C2"/>
<path id="Vector_42" opacity="0.81" fill-rule="evenodd" clip-rule="evenodd" d="M7.59773 7.80446C7.5866 7.80446 7.58661 7.80446 7.57622 7.80446C7.51094 7.79317 7.46716 7.72547 7.47829 7.65778C7.48942 7.6126 7.63038 6.5859 8.07621 5.42374C8.67411 3.87801 9.52197 2.85124 10.5323 2.46759C11.1087 2.25322 11.576 2.2984 11.9343 2.59176C12.9996 3.48307 12.6302 6.37153 12.6086 6.49562C12.5975 6.56331 12.5434 6.60842 12.467 6.5972C12.4024 6.5859 12.3587 6.5295 12.3587 6.45052C12.3587 6.41663 12.7281 3.58465 11.7719 2.77225C11.4893 2.55787 11.0976 2.53536 10.6199 2.71585C8.32621 3.58465 7.72831 7.65778 7.72831 7.70288C7.71718 7.75928 7.66301 7.80446 7.59773 7.80446Z" fill="#B2B2C2"/>
<path id="Vector_43" opacity="0.42" fill-rule="evenodd" clip-rule="evenodd" d="M9.03246 4.57755C9.15189 4.40836 9.26092 4.23909 9.36922 4.05859C9.3262 4.11499 9.01093 4.70172 8.35888 4.61144C8.34775 4.61144 8.72832 4.73553 9.03246 4.57755Z" fill="#595961"/>
<path id="Vector_44" opacity="0.42" fill-rule="evenodd" clip-rule="evenodd" d="M8.66296 5.29894C8.76088 5.11837 8.85878 4.92659 8.93444 4.74609C8.9018 4.81379 8.68444 5.42303 7.99976 5.42303C7.99976 5.42303 8.38033 5.50202 8.66296 5.29894Z" fill="#595961"/>
<path id="Vector_45" opacity="0.42" fill-rule="evenodd" clip-rule="evenodd" d="M8.3803 6.04418C8.46709 5.85232 8.53239 5.66054 8.59767 5.46875C8.56503 5.53644 8.4456 6.15698 7.72827 6.23597C7.72827 6.22467 8.11918 6.26985 8.3803 6.04418Z" fill="#595961"/>
<path id="Vector_46" opacity="0.62" fill-rule="evenodd" clip-rule="evenodd" d="M12.7281 3.84411C12.6739 3.64096 12.6198 3.44917 12.5433 3.24609C12.5649 3.31379 12.7822 3.95691 12.3372 4.41947C12.3372 4.41947 12.6628 4.19388 12.7281 3.84411Z" fill="#595961"/>
<path id="Vector_47" opacity="0.62" fill-rule="evenodd" clip-rule="evenodd" d="M12.3046 2.82803C12.1526 2.68135 11.9997 2.54597 11.8477 2.42188C11.9025 2.47827 12.4129 2.89573 12.272 3.52756C12.2609 3.52756 12.4241 3.15521 12.3046 2.82803Z" fill="#595961"/>
<path id="Vector_48" opacity="0.62" fill-rule="evenodd" clip-rule="evenodd" d="M12.837 4.88233C12.8259 4.67925 12.7932 4.46487 12.7606 4.26172C12.7606 4.34071 12.8696 5.00642 12.3474 5.36748C12.3474 5.36748 12.7064 5.2095 12.837 4.88233Z" fill="#595961"/>
<path id="Vector_49" opacity="0.62" fill-rule="evenodd" clip-rule="evenodd" d="M12.8912 5.9428C12.9023 5.73972 12.9023 5.52535 12.8912 5.32227C12.8912 5.40125 12.9023 6.06697 12.3474 6.37155C12.3474 6.36033 12.728 6.24746 12.8912 5.9428Z" fill="#595961"/>
<path id="Vector_50" opacity="0.42" fill-rule="evenodd" clip-rule="evenodd" d="M8.13027 6.86755C8.19555 6.66447 8.23933 6.46139 8.28236 6.26953C8.26084 6.33722 8.16293 6.98035 7.49976 7.13833C7.51088 7.13833 7.9018 7.12703 8.13027 6.86755Z" fill="#595961"/>
<path id="Vector_51" opacity="0.42" fill-rule="evenodd" clip-rule="evenodd" d="M9.44555 3.95665C9.59762 3.82126 9.73927 3.67458 9.86983 3.5166C9.81494 3.56171 9.38025 4.02434 8.77197 3.85507C8.78236 3.85507 9.11915 4.05822 9.44555 3.95665Z" fill="#595961"/>
<path id="Vector_52" opacity="0.42" fill-rule="evenodd" clip-rule="evenodd" d="M9.93439 3.43765C10.1087 3.32486 10.2719 3.21198 10.4344 3.08789C10.3698 3.12177 9.86984 3.49405 9.29346 3.22328C9.29346 3.22328 9.59761 3.48276 9.93439 3.43765Z" fill="#595961"/>
<path id="Vector_53" opacity="0.62" fill-rule="evenodd" clip-rule="evenodd" d="M10.5977 3.06584C10.7935 3.00937 10.9783 2.94167 11.163 2.87398C11.0977 2.89657 10.5109 3.09965 10.0325 2.6709C10.0325 2.6709 10.2609 3.00937 10.5977 3.06584Z" fill="#595961"/>
<path id="Vector_54" opacity="0.62" fill-rule="evenodd" clip-rule="evenodd" d="M11.1516 2.86247C11.3045 2.88506 11.4566 2.89636 11.6086 2.90765C11.5545 2.89636 11.0871 2.86247 10.8801 2.41113C10.8913 2.41113 10.9454 2.71579 11.1516 2.86247Z" fill="#595961"/>
<path id="Vector_55" opacity="0.62" fill-rule="evenodd" clip-rule="evenodd" d="M11.7392 3.11083C11.8371 3.23492 11.9343 3.35902 12.0322 3.47189C11.9996 3.42671 11.6954 3.05443 11.8475 2.5918C11.8586 2.5918 11.6954 2.85135 11.7392 3.11083Z" fill="#595961"/>
<path id="Vector_56" fill-rule="evenodd" clip-rule="evenodd" d="M12.4892 6.4394C12.4996 6.3153 12.8698 3.46073 11.8372 2.59194C11.6413 2.42274 11.4025 2.34375 11.1414 2.34375C10.9455 2.34375 10.7282 2.38885 10.4997 2.47914C9.49974 2.85149 8.66296 3.85567 8.07619 5.39011C7.63036 6.54098 7.4894 7.56775 7.47827 7.61285C7.47827 7.64666 7.49983 7.68055 7.53247 7.68055H7.54356C7.5762 7.68055 7.59771 7.65796 7.59771 7.62415C7.60884 7.57897 8.1956 3.46073 10.5323 2.58064C11.0323 2.38885 11.4566 2.42274 11.7607 2.68222C12.7496 3.50584 12.3802 6.383 12.3698 6.41688C12.3698 6.45069 12.3913 6.48458 12.4239 6.48458C12.4239 6.48458 12.4239 6.48458 12.4343 6.48458C12.4669 6.49587 12.4892 6.47328 12.4892 6.4394Z" fill="url(#paint22_linear_646_39752)"/>
<path id="Vector_57" fill-rule="evenodd" clip-rule="evenodd" d="M12.9239 5.02867C12.8801 3.81011 12.6086 2.98642 12.1086 2.55767C11.8371 2.33207 11.5108 2.23049 11.1414 2.25308C11.424 2.2756 11.6844 2.37718 11.9025 2.55767C12.4024 2.9752 12.6739 3.81011 12.7169 5.02867C12.7496 5.88617 12.6524 6.6308 12.6524 6.66468C12.6302 6.80007 12.5434 6.90165 12.4343 6.93546C12.4566 6.94675 12.4669 6.94675 12.4892 6.94675C12.6628 6.96934 12.826 6.84517 12.8475 6.66468C12.8586 6.6308 12.9565 5.89746 12.9239 5.02867Z" fill="url(#paint23_linear_646_39752)"/>
<path id="Vector_58" fill-rule="evenodd" clip-rule="evenodd" d="M10.5221 3.03172C8.33745 3.85534 7.76107 7.81567 7.76107 7.86078C7.73956 7.99617 7.65201 8.09774 7.5437 8.13155C7.56521 8.14285 7.57634 8.14285 7.59785 8.14285C7.60898 8.14285 7.63051 8.14285 7.64163 8.14285C7.80483 8.14285 7.93464 8.01875 7.95689 7.86078C7.96728 7.81567 8.53254 3.86664 10.7172 3.04294C10.87 2.98655 10.9998 2.95274 11.12 2.94144C10.9568 2.91885 10.7498 2.95273 10.5221 3.03172Z" fill="url(#paint24_linear_646_39752)"/>
</g>
<defs>
<linearGradient id="paint0_linear_646_39752" x1="10.208" y1="2.95516" x2="9.86715" y2="7.59629" gradientUnits="userSpaceOnUse">
<stop stop-color="white" stop-opacity="0.65"/>
<stop offset="1" stop-color="white" stop-opacity="0.01"/>
</linearGradient>
<linearGradient id="paint1_linear_646_39752" x1="12.6991" y1="5.61219" x2="15.0991" y2="7.71429" gradientUnits="userSpaceOnUse">
<stop stop-opacity="0.01"/>
<stop offset="1" stop-opacity="0.4"/>
</linearGradient>
<linearGradient id="paint2_linear_646_39752" x1="11.7369" y1="8.04424" x2="14.2772" y2="5.67808" gradientUnits="userSpaceOnUse">
<stop stop-opacity="0.01"/>
<stop offset="1" stop-opacity="0.4"/>
</linearGradient>
<linearGradient id="paint3_linear_646_39752" x1="8.50351" y1="1.13898" x2="-1.36336" y2="12.5078" gradientUnits="userSpaceOnUse">
<stop stop-color="#B8D26E"/>
<stop offset="1" stop-color="#7FB525"/>
</linearGradient>
<linearGradient id="paint4_linear_646_39752" x1="22.0007" y1="3.98531" x2="16.5856" y2="4.08587" gradientUnits="userSpaceOnUse">
<stop stop-color="#B4E034"/>
<stop offset="1" stop-color="#60A927"/>
</linearGradient>
<linearGradient id="paint5_linear_646_39752" x1="5.89376" y1="11.5662" x2="1.45407" y2="22.3778" gradientUnits="userSpaceOnUse">
<stop stop-color="white"/>
<stop offset="1" stop-color="#CECEEB"/>
</linearGradient>
<linearGradient id="paint6_linear_646_39752" x1="12.2592" y1="38.1909" x2="19.2908" y2="38.1767" gradientUnits="userSpaceOnUse">
<stop stop-color="#1D1D1B" stop-opacity="0.5"/>
<stop offset="0.038033" stop-color="#1D1D1B" stop-opacity="0.4837"/>
<stop offset="0.4243" stop-color="#1D1D1B" stop-opacity="0.3185"/>
<stop offset="1" stop-color="#1D1D1B" stop-opacity="0.01"/>
</linearGradient>
<linearGradient id="paint7_linear_646_39752" x1="13.0759" y1="4.35017" x2="11.9094" y2="4.978" gradientUnits="userSpaceOnUse">
<stop stop-opacity="0.01"/>
<stop offset="1" stop-opacity="0.4"/>
</linearGradient>
<linearGradient id="paint8_linear_646_39752" x1="8.18518" y1="6.21254" x2="7.36516" y2="6.91727" gradientUnits="userSpaceOnUse">
<stop stop-opacity="0.01"/>
<stop offset="1" stop-opacity="0.4"/>
</linearGradient>
<linearGradient id="paint9_linear_646_39752" x1="16.1841" y1="20.4499" x2="16.2671" y2="21.5443" gradientUnits="userSpaceOnUse">
<stop stop-opacity="0.01"/>
<stop offset="1" stop-opacity="0.4"/>
</linearGradient>
<linearGradient id="paint10_linear_646_39752" x1="14.2458" y1="18.8478" x2="14.4382" y2="21.6931" gradientUnits="userSpaceOnUse">
<stop stop-color="white" stop-opacity="0.5"/>
<stop offset="0.0896271" stop-color="white" stop-opacity="0.4552"/>
<stop offset="1" stop-color="white" stop-opacity="0.01"/>
</linearGradient>
<linearGradient id="paint11_linear_646_39752" x1="13.8756" y1="19.2903" x2="14.218" y2="22.3297" gradientUnits="userSpaceOnUse">
<stop stop-opacity="0.01"/>
<stop offset="1" stop-opacity="0.4"/>
</linearGradient>
<linearGradient id="paint12_linear_646_39752" x1="12.5322" y1="1.80254" x2="3.75129" y2="6.88108" gradientUnits="userSpaceOnUse">
<stop stop-color="white" stop-opacity="0.5"/>
<stop offset="1" stop-color="white" stop-opacity="0.01"/>
</linearGradient>
<linearGradient id="paint13_linear_646_39752" x1="14.2265" y1="28.3456" x2="21.9769" y2="28.3612" gradientUnits="userSpaceOnUse">
<stop stop-color="#1D1D1B" stop-opacity="0.5"/>
<stop offset="0.0896271" stop-color="#1D1D1B" stop-opacity="0.4552"/>
<stop offset="1" stop-color="#1D1D1B" stop-opacity="0.01"/>
</linearGradient>
<linearGradient id="paint14_linear_646_39752" x1="19.7768" y1="5.38005" x2="18.6758" y2="5.64982" gradientUnits="userSpaceOnUse">
<stop stop-color="white" stop-opacity="0.4"/>
<stop offset="1" stop-color="white" stop-opacity="0.01"/>
</linearGradient>
<linearGradient id="paint15_linear_646_39752" x1="9.89884" y1="21.8639" x2="10.4713" y2="19.1038" gradientUnits="userSpaceOnUse">
<stop stop-color="#1D1D1B" stop-opacity="0.5"/>
<stop offset="0.0896271" stop-color="#1D1D1B" stop-opacity="0.4552"/>
<stop offset="1" stop-color="#1D1D1B" stop-opacity="0.01"/>
</linearGradient>
<linearGradient id="paint16_linear_646_39752" x1="13.2087" y1="37.8402" x2="20.2655" y2="37.8463" gradientUnits="userSpaceOnUse">
<stop stop-color="#1D1D1B" stop-opacity="0.5"/>
<stop offset="1" stop-color="#1D1D1B" stop-opacity="0.01"/>
</linearGradient>
<linearGradient id="paint17_linear_646_39752" x1="6.76028" y1="3.60564" x2="3.33776" y2="16.7549" gradientUnits="userSpaceOnUse">
<stop stop-color="white" stop-opacity="0.5"/>
<stop offset="1" stop-color="white" stop-opacity="0.01"/>
</linearGradient>
<linearGradient id="paint18_linear_646_39752" x1="6.76028" y1="3.60564" x2="3.33776" y2="16.7549" gradientUnits="userSpaceOnUse">
<stop stop-color="white" stop-opacity="0.5"/>
<stop offset="1" stop-color="white" stop-opacity="0.01"/>
</linearGradient>
<linearGradient id="paint19_linear_646_39752" x1="15.0663" y1="17.3895" x2="12.3612" y2="21.1129" gradientUnits="userSpaceOnUse">
<stop stop-color="white" stop-opacity="0.5"/>
<stop offset="0.0896271" stop-color="white" stop-opacity="0.4552"/>
<stop offset="1" stop-color="white" stop-opacity="0.01"/>
</linearGradient>
<linearGradient id="paint20_linear_646_39752" x1="15.8822" y1="18.2455" x2="15.6144" y2="18.8459" gradientUnits="userSpaceOnUse">
<stop stop-opacity="0.01"/>
<stop offset="1" stop-opacity="0.4"/>
</linearGradient>
<linearGradient id="paint21_linear_646_39752" x1="18.5387" y1="19.0399" x2="18.5254" y2="19.2013" gradientUnits="userSpaceOnUse">
<stop stop-opacity="0.01"/>
<stop offset="1" stop-opacity="0.4"/>
</linearGradient>
<linearGradient id="paint22_linear_646_39752" x1="8.79721" y1="1.96394" x2="7.62773" y2="6.58393" gradientUnits="userSpaceOnUse">
<stop stop-color="white" stop-opacity="0.65"/>
<stop offset="1" stop-color="white" stop-opacity="0.01"/>
</linearGradient>
<linearGradient id="paint23_linear_646_39752" x1="11.4143" y1="4.62863" x2="13.4487" y2="6.69691" gradientUnits="userSpaceOnUse">
<stop stop-opacity="0.01"/>
<stop offset="1" stop-opacity="0.4"/>
</linearGradient>
<linearGradient id="paint24_linear_646_39752" x1="10.1141" y1="7.67453" x2="12.9248" y2="4.78788" gradientUnits="userSpaceOnUse">
<stop stop-opacity="0.01"/>
<stop offset="1" stop-opacity="0.4"/>
</linearGradient>
</defs>
</svg>
