<svg width="32" height="32" viewBox="0 0 32 32" fill="none" xmlns="http://www.w3.org/2000/svg">
<g clipPath="url(#clip0_47_516)">
<path d="M31.071 13.0064C30.3484 12.0086 29.3505 11.2172 28.215 10.8043C27.4581 10.529 26.6667 10.3914 25.8753 10.3914C24.4989 10.3914 23.0193 10.8387 21.6086 11.6645L9.18708 18.9247C7.2602 20.0602 5.81504 19.8882 4.95483 19.5785C4.30106 19.3376 3.78493 18.9247 3.37203 18.3742C2.99353 17.8236 2.78708 17.1699 2.75267 16.5161C2.75267 15.8279 2.95913 15.1742 3.33762 14.6236C3.71612 14.0731 4.26665 13.6602 4.88601 13.4193C5.74622 13.0753 7.19138 12.9032 9.11827 14.0043L10.529 14.7957C10.4602 15.071 10.3914 15.3806 10.357 15.6559L10.2882 16.2064L20.886 10.1161H20.9204C21.1957 9.90966 21.4021 9.63439 21.471 9.29031C21.5398 8.94622 21.471 8.60214 21.2989 8.29246C21.1269 7.98278 20.8516 7.77633 20.5075 7.6731C20.1634 7.56988 19.8193 7.60429 19.5097 7.74192L16.0688 9.73762L12.5935 7.70751H12.5591C12.2494 7.56988 11.871 7.53547 11.5613 7.63869C11.2172 7.74192 10.9419 7.98278 10.7699 8.25805C10.5978 8.56773 10.5634 8.91181 10.6322 9.2559C10.7011 9.59998 10.9075 9.87525 11.2172 10.0817L13.3505 11.286L13.0408 11.458C12.6279 11.7333 12.2494 12.043 11.9054 12.3871L10.4946 11.5957C8.25805 10.3226 5.91827 10.0473 3.88816 10.8387C3.06235 11.1484 2.27095 11.6645 1.6516 12.3183C1.03224 12.972 0.550524 13.7634 0.275255 14.6236C-0.206465 16.1376 -0.103239 17.7204 0.584933 19.1312C1.2731 20.5419 2.47741 21.6086 3.95698 22.1591C4.71397 22.4344 5.50536 22.572 6.29676 22.572C7.6731 22.572 9.15267 22.1247 10.5634 21.2989H10.5978L22.9849 14.0387C24.9118 12.9032 26.357 13.0753 27.2172 13.3849C27.871 13.6258 28.3871 14.0387 28.8 14.5892C29.1785 15.1398 29.3849 15.7935 29.3849 16.4817C29.3849 16.8258 29.3161 17.2043 29.2129 17.514C29.0408 17.9613 28.8 18.4086 28.4559 18.7527C28.1118 19.0968 27.6989 19.372 27.2516 19.5441C26.3914 19.8882 24.9462 20.0602 23.0193 18.9591L21.6086 18.1677C21.7118 17.858 21.7462 17.5484 21.815 17.2387L21.8839 16.6882L13.6258 21.5054V24.7054L19.1312 21.5054C19.5441 21.2301 19.9226 20.9204 20.2667 20.5763L21.6774 21.3677C23.9484 22.6408 26.2882 22.9161 28.2839 22.1591C29.4537 21.7118 30.4172 20.9548 31.1398 19.9226C31.8279 18.8903 32.2064 17.7204 32.2064 16.4817C32.1376 15.2086 31.7591 14.0043 31.071 13.0064Z" fill="black"/>
</g>
<defs>
<clipPath id="clip0_47_516">
<rect width="32" height="32" fill="white"/>
</clipPath>
</defs>
</svg>
