<svg width="32" height="32" viewBox="0 0 32 32" fill="none" xmlns="http://www.w3.org/2000/svg">
<path d="M15.36 12.0533C15.36 13.8667 13.8667 15.36 12.0533 15.36C10.24 15.36 8.74667 13.8667 8.74667 12.0533C8.74667 10.24 10.24 8.74667 12.0533 8.74667C13.8667 8.74667 15.36 10.24 15.36 12.0533ZM12.0533 16.64C10.24 16.64 8.74667 18.1333 8.74667 19.9467C8.74667 21.76 10.24 23.2533 12.0533 23.2533C13.8667 23.2533 15.36 21.76 15.36 19.9467C15.36 18.1333 13.8667 16.64 12.0533 16.64ZM32 16C32 24.8533 24.8533 32 16 32C7.14667 32 0 24.8533 0 16C0 7.14667 7.14667 0 16 0C24.8533 0 32 7.14667 32 16ZM27.7333 16C27.7333 9.49333 22.5067 4.26667 16 4.26667C9.49333 4.26667 4.26667 9.49333 4.26667 16C4.26667 22.5067 9.49333 27.7333 16 27.7333C22.5067 27.7333 27.7333 22.5067 27.7333 16ZM19.9467 16.64C18.1333 16.64 16.64 18.1333 16.64 19.9467C16.64 21.76 18.1333 23.2533 19.9467 23.2533C21.76 23.2533 23.2533 21.76 23.2533 19.9467C23.2533 18.1333 21.76 16.64 19.9467 16.64ZM19.9467 8.74667C18.1333 8.74667 16.64 10.24 16.64 12.0533C16.64 13.8667 18.1333 15.36 19.9467 15.36C21.76 15.36 23.2533 13.8667 23.2533 12.0533C23.2533 10.24 21.76 8.74667 19.9467 8.74667Z" fill="#F22F46"/>
</svg>
