<svg width="32" height="11" viewBox="0 0 32 11" fill="none" xmlns="http://www.w3.org/2000/svg">
<g clip-path="url(#clip0_493_10793)">
<path d="M31.9998 2.34277V9.88741L30.917 10.9066V3.52356L31.9998 2.34277Z" fill="#E79225"/>
<path d="M24.9037 2.34899L23.7822 3.52356L23.8402 3.59814L30.8721 3.57328L30.9365 3.52356L32 2.34277L24.9037 2.34899Z" fill="#FFF16D"/>
<path d="M23.7822 3.52393H30.9365V10.9132H23.7822V3.52393Z" fill="url(#paint0_linear_493_10793)"/>
<path d="M29.8475 6.18365C29.7057 5.84184 29.493 5.53111 29.2158 5.26387C28.9516 5.00286 28.6551 4.80399 28.3199 4.67348C27.9912 4.54297 27.6367 4.47461 27.25 4.47461C26.8633 4.47461 26.5023 4.54297 26.1736 4.67348C25.8385 4.80399 25.542 5.00286 25.2777 5.26387C25.0006 5.53111 24.7943 5.84184 24.6525 6.18365C24.5107 6.52546 24.4463 6.89834 24.4463 7.30851C24.4463 7.70625 24.5172 8.07913 24.659 8.42715C24.8008 8.77517 25.007 9.08591 25.2842 9.35936C25.542 9.61416 25.8385 9.80681 26.1672 9.93732C26.4959 10.0678 26.8633 10.1362 27.2564 10.1362C27.6367 10.1362 27.9912 10.0678 28.3199 9.93732C28.6486 9.80681 28.9516 9.61416 29.2158 9.35936C29.493 9.08591 29.7057 8.77517 29.8475 8.43337C29.9893 8.09156 30.0602 7.71246 30.0602 7.31472C30.0602 6.89834 29.9893 6.52546 29.8475 6.18365ZM28.3715 8.61981C28.0943 8.93676 27.727 9.09834 27.25 9.09834C26.773 9.09834 26.3992 8.93676 26.1221 8.61981C25.8449 8.30286 25.7096 7.86161 25.7096 7.30229C25.7096 6.73054 25.8514 6.2893 26.1221 5.96613C26.3992 5.64297 26.7666 5.4876 27.25 5.4876C27.727 5.4876 28.0943 5.64919 28.3715 5.96613C28.6422 6.2893 28.784 6.73054 28.784 7.30229C28.784 7.86161 28.6486 8.30286 28.3715 8.61981Z" fill="white"/>
<path d="M23.0799 1.72754V1.76483L23.9951 8.54505L23.4602 9.97443L23.3893 9.92471L22.4482 3.42415L22.4676 3.33714L23.0541 1.76483L23.0799 1.72754Z" fill="#009ADA"/>
<path d="M16.0351 2.67217L23.0798 1.72754L22.4868 3.35579L22.403 3.44279L15.8159 4.375L15.8481 3.21285L16.0351 2.67217Z" fill="#91C9ED"/>
<path d="M22.4869 3.35596L23.4602 9.9746L16.5186 10.913L15.584 4.5181L15.99 4.21358L22.4869 3.35596Z" fill="url(#paint1_linear_493_10793)"/>
<path d="M21.3071 4.6236C21.2749 4.41851 21.204 4.26315 21.088 4.1575C20.9913 4.07671 20.8753 4.0332 20.7399 4.0332C20.7077 4.0332 20.669 4.0332 20.6304 4.03942C20.4499 4.06428 20.3145 4.14507 20.2308 4.27558C20.1663 4.3688 20.1405 4.48688 20.1405 4.6236C20.1405 4.67332 20.147 4.72925 20.1534 4.78518L20.4048 6.50665L18.4067 6.79253L18.1554 5.07106C18.1231 4.87219 18.0522 4.71682 17.9362 4.61117C17.8395 4.52416 17.7235 4.48066 17.5946 4.48066C17.5624 4.48066 17.5302 4.48066 17.4979 4.48688C17.311 4.51173 17.1692 4.59253 17.079 4.72303C17.0146 4.81625 16.9888 4.93433 16.9888 5.07106C16.9888 5.12077 16.9952 5.17671 17.0017 5.23885L17.6849 9.71964C17.7171 9.92473 17.788 10.0801 17.9169 10.1857C18.0136 10.2665 18.1296 10.3038 18.2714 10.3038C18.3101 10.3038 18.3487 10.3038 18.3874 10.2976C18.5614 10.2728 18.6903 10.192 18.7741 10.0615C18.8321 9.96823 18.8579 9.85637 18.8579 9.72586C18.8579 9.67614 18.8515 9.62021 18.845 9.56428L18.5679 7.79309L20.5659 7.50721L20.8431 9.2784C20.8753 9.48349 20.9462 9.63885 21.0687 9.73829C21.1653 9.81908 21.2813 9.86258 21.4167 9.86258C21.4489 9.86258 21.4876 9.86258 21.5263 9.85637C21.7067 9.83151 21.8421 9.75072 21.9259 9.62021C21.9839 9.52699 22.0161 9.41512 22.0161 9.2784C22.0161 9.22868 22.0097 9.17275 22.0032 9.11682L21.3071 4.6236Z" fill="white"/>
<path d="M9.44131 0L6.93408 5.74237L7.27568 8.26554L7.29502 8.25932L10.1116 2.15028L10.0987 2.01977L9.49287 0.080791L9.44131 0Z" fill="#66BF6B"/>
<path d="M9.44141 0L10.0924 2.10678L10.1053 2.15028L16.3057 4.82881L16.325 4.81638L15.7965 2.80282L9.44141 0Z" fill="#98D0A0"/>
<path d="M10.0925 2.10693L16.3251 4.81654L13.5085 10.9753L7.27588 8.26569L10.0925 2.10693Z" fill="url(#paint2_linear_493_10793)"/>
<path d="M14.4365 5.3138C14.3012 4.96578 14.1143 4.66747 13.8693 4.41888C13.6244 4.17029 13.3279 3.97142 12.9799 3.82849C12.6318 3.68555 12.2838 3.61719 11.9293 3.61719H11.91C11.549 3.61719 11.1945 3.69798 10.8465 3.84713C10.4791 4.0025 10.1633 4.2138 9.89258 4.49346C9.62187 4.76691 9.40273 5.1025 9.23516 5.48781C9.06758 5.8669 8.97734 6.25222 8.95801 6.63131V6.76182C8.95801 7.09741 9.01602 7.42679 9.13848 7.74996C9.26738 8.09176 9.4543 8.38385 9.69922 8.63244C9.94414 8.88103 10.2471 9.0799 10.608 9.22284C10.9496 9.36577 11.2977 9.43414 11.6521 9.43414H11.6586C12.0131 9.43414 12.3676 9.35956 12.7156 9.21662C13.083 9.06126 13.4053 8.84374 13.676 8.56408C13.9467 8.29063 14.1723 7.96126 14.3398 7.57594C14.5074 7.19063 14.5977 6.81154 14.617 6.43244V6.32058C14.6234 5.97877 14.5654 5.64318 14.4365 5.3138ZM13.1926 7.10363C12.9605 7.63809 12.6447 8.00476 12.2645 8.20363C12.0582 8.30928 11.8455 8.36521 11.6328 8.36521C11.4459 8.36521 11.2461 8.32171 11.0463 8.24092C10.608 8.06069 10.3373 7.77481 10.2213 7.36465C10.1826 7.22792 10.1633 7.08498 10.1633 6.93583C10.1633 6.63753 10.2406 6.30815 10.3953 5.95391C10.6338 5.40702 10.9496 5.03414 11.3299 4.82905C11.5361 4.71719 11.7488 4.66747 11.9615 4.66747C12.1549 4.66747 12.3482 4.71097 12.5545 4.79176C12.9863 4.97199 13.257 5.25787 13.373 5.66803C13.4117 5.79854 13.4311 5.94148 13.4311 6.09063C13.4311 6.40137 13.3537 6.73696 13.1926 7.10363Z" fill="white"/>
<path d="M6.43779 0.975586L7.45615 7.55073L6.99209 9.86259L6.92764 9.7818L5.93506 3.43039V3.30609L6.37334 1.08745L6.43779 0.975586Z" fill="#760D16"/>
<path d="M-1 4.37502L-0.516602 2.05073L6.43789 0.975586L5.96738 3.34338V3.49875L-0.916211 4.43717L-1 4.37502Z" fill="#EF463E"/>
<path d="M5.96738 3.34326L6.99219 9.86247L0.108594 10.9003L-1 4.3749L5.96738 3.34326Z" fill="url(#paint3_linear_493_10793)"/>
<path d="M5.22617 8.82481C5.17461 8.76267 5.09727 8.71916 5.00703 8.68809C4.9168 8.65702 4.80723 8.64459 4.67188 8.64459C4.54941 8.64459 4.40762 8.65702 4.25293 8.68188L2.43535 8.98018C2.45469 8.84346 2.52559 8.66945 2.64805 8.45193C2.7834 8.20956 2.98965 7.91747 3.25391 7.58188C3.34414 7.4638 3.41504 7.37679 3.4666 7.31464C3.49883 7.27114 3.55039 7.21521 3.61484 7.13442C4.03379 6.60617 4.28516 6.17736 4.38828 5.84176C4.44629 5.64911 4.47852 5.45645 4.49141 5.2638C4.49785 5.20786 4.49785 5.15815 4.49785 5.10843C4.49785 4.97171 4.48496 4.83498 4.45918 4.69826C4.43984 4.57397 4.40762 4.47453 4.3625 4.39374C4.31738 4.31295 4.26582 4.2508 4.20137 4.21351C4.13047 4.17001 4.0209 4.15137 3.88555 4.15137C3.77598 4.15137 3.64062 4.1638 3.47949 4.18866L1.37832 4.53668C1.12695 4.58018 0.933594 4.64854 0.817578 4.76041C0.720898 4.84741 0.675781 4.95928 0.675781 5.08357C0.675781 5.11464 0.675781 5.15193 0.682227 5.18922C0.714453 5.36323 0.804687 5.48753 0.95293 5.54967C1.04316 5.58696 1.14629 5.6056 1.2752 5.6056C1.35898 5.6056 1.45566 5.59939 1.55879 5.58075L3.31191 5.28244C3.31191 5.31351 3.31836 5.34459 3.31836 5.36945C3.31836 5.4751 3.29902 5.58075 3.26035 5.68018C3.20879 5.82312 3.07988 6.02199 2.86719 6.27679C2.80918 6.34515 2.71895 6.45702 2.59648 6.59995C2.11953 7.15306 1.78437 7.62538 1.57812 8.0169C1.42988 8.29035 1.3332 8.55137 1.2752 8.8186C1.24297 8.97397 1.22363 9.1169 1.22363 9.25984C1.22363 9.35928 1.23008 9.45871 1.24941 9.55193C1.2752 9.68865 1.30742 9.80052 1.35254 9.88753C1.39766 9.97453 1.46211 10.0429 1.53301 10.0802C1.60391 10.1175 1.70059 10.1299 1.84238 10.1299C2.01641 10.1299 2.25488 10.105 2.55781 10.0553L4.46563 9.73837C4.80078 9.68244 5.03926 9.60165 5.17461 9.496C5.28418 9.40899 5.34219 9.29092 5.34219 9.15419C5.34219 9.1169 5.33574 9.07962 5.3293 9.04233C5.31641 8.96154 5.28418 8.88696 5.22617 8.82481Z" fill="white"/>
</g>
<defs>
<linearGradient id="paint0_linear_493_10793" x1="381.468" y1="14.098" x2="381.468" y2="720.142" gradientUnits="userSpaceOnUse">
<stop offset="0.00562" stop-color="#FFE513"/>
<stop offset="1" stop-color="#FDB924"/>
</linearGradient>
<linearGradient id="paint1_linear_493_10793" x1="51.1213" y1="105.331" x2="745.495" y2="689.383" gradientUnits="userSpaceOnUse">
<stop offset="0.00562" stop-color="#008CD2"/>
<stop offset="1" stop-color="#00649D"/>
</linearGradient>
<linearGradient id="paint2_linear_493_10793" x1="459.755" y1="248.461" x2="459.755" y2="867.029" gradientUnits="userSpaceOnUse">
<stop stop-color="#26A146"/>
<stop offset="1" stop-color="#008A52"/>
</linearGradient>
<linearGradient id="paint3_linear_493_10793" x1="348.53" y1="65.3716" x2="447.481" y2="709.401" gradientUnits="userSpaceOnUse">
<stop stop-color="#D92231"/>
<stop offset="1" stop-color="#BA2234"/>
</linearGradient>
<clipPath id="clip0_493_10793">
<rect width="33" height="11" fill="white" transform="translate(-1)"/>
</clipPath>
</defs>
</svg>
